<?xml version="1.0" encoding="utf-8"?>
<!-- Generator: Adobe Illustrator 18.0.0, SVG Export Plug-In . SVG Version: 6.00 Build 0)  -->
<!DOCTYPE svg PUBLIC "-//W3C//DTD SVG 1.1//EN" "http://www.w3.org/Graphics/SVG/1.1/DTD/svg11.dtd">
<svg version="1.1" id="paperclip-clip" xmlns="http://www.w3.org/2000/svg" xmlns:xlink="http://www.w3.org/1999/xlink" x="0px"
	 y="0px" viewBox="0 0 128 128" enable-background="new 0 0 128 128" xml:space="preserve">
<path d="M63.592,127.053c-0.996,0-1.999-0.351-2.809-1.041l-24.062-20.735c-0.948-0.817-1.498-2.007-1.498-3.259V4.803
	c0-2.377,1.93-4.298,4.307-4.298h33.253c2.363,0,4.286,1.922,4.293,4.297l0.089,87.778c0,1.087-0.412,2.133-1.154,2.933
	l-9.218,9.934c-0.817,0.869-1.951,1.37-3.139,1.372c-0.007,0-0.014,0-0.014,0c-1.195,0-2.322-0.484-3.132-1.351l-9.081-9.641
	c-0.756-0.8-1.175-1.853-1.175-2.948l0.014-71.729c0-2.378,1.923-4.302,4.307-4.302l0,0c2.363,0,4.293,1.927,4.293,4.302
	l-0.014,70.025l4.754,5.05l4.959-5.329l-0.089-81.79H43.83v90.943l19.762,17.022l19.804-17.154V21.225c0-2.378,1.916-4.3,4.3-4.3
	c2.37,0,4.3,1.922,4.3,4.3v80.655c0,1.25-0.543,2.439-1.498,3.252l-24.09,20.872C65.605,126.703,64.595,127.053,63.592,127.053z"/>
</svg>
