<?xml version="1.0" encoding="utf-8"?>
<!-- Generator: Adobe Illustrator 18.0.0, SVG Export Plug-In . SVG Version: 6.00 Build 0)  -->
<!DOCTYPE svg PUBLIC "-//W3C//DTD SVG 1.1//EN" "http://www.w3.org/Graphics/SVG/1.1/DTD/svg11.dtd">
<svg version="1.1" xmlns="http://www.w3.org/2000/svg" xmlns:xlink="http://www.w3.org/1999/xlink" x="0px" y="0px"
	 viewBox="0 0 128 128" style="enable-background:new 0 0 128 128;" xml:space="preserve">
<g id="battery-charging-outline">
	<path d="M121.715,43.034h-4.27V31.421c0-2.996-2.434-5.44-5.44-5.44H6.504c-3.006,0-5.44,2.444-5.44,5.44V94.28
		c0,3.006,2.434,5.44,5.44,5.44h105.5c3.006,0,5.44-2.434,5.44-5.44V83.124h4.27c3.009,0,5.44-2.423,5.44-5.44v-29.21
		C127.155,45.467,124.724,43.034,121.715,43.034z M106.564,88.84h-94.62V36.861h94.62v11.613v29.21V88.84z"/>
</g>
<g id="battery-charging-bolt">
	<polygon points="55.446,46.159 55.287,46.169 27.033,72.117 53.215,61.013 63.064,79.553 91.475,53.584 65.284,64.699 	"/>
</g>
</svg>
