<?xml version="1.0" encoding="utf-8"?>
<svg xmlns="http://www.w3.org/2000/svg" x="0px" y="0px" xmlns:xlink="http://www.w3.org/1999/xlink" viewBox="0 0 128 128" enable-background="new 0 0 128 128">
    <g class="plug-base">
        <path d="M38.893,28.196H23.495h-8.597c-3.295,0-5.979,2.665-5.979,5.982c0,3.293,2.684,5.979,5.979,5.979h3.133
		c2.331,24.314,18.454,43.554,39.01,46.716v34.618c0,3.295,2.684,5.984,5.98,5.984c3.314,0,5.979-2.689,5.979-5.984V86.853
		c20.432-3.298,36.44-22.494,38.771-46.696h3.18c3.296,0,5.98-2.686,5.98-5.979c0-3.317-2.684-5.982-5.98-5.982h-8.644H86.9
		 M74.941,28.196h-24.09 M63.279,75.568c-0.095,0-0.172-0.047-0.258-0.047c-0.124,0-0.21,0.06-0.344,0.071
		c-16.688-0.141-30.518-15.51-32.849-35.435h66.156C93.644,60.025,79.898,75.336,63.279,75.568z"/>
    </g>
    <g class="plug-pront-right">
        <path d="M86.962,28.245V6.832c0-3.299-2.675-5.988-5.98-5.988c-3.305,0-5.979,2.689-5.979,5.988v21.413"/>
    </g>
    <g class="plug-prong-left">
        <path d="M50.9,28.321V6.848c0-3.308-2.675-6.005-5.98-6.005s-5.979,2.697-5.979,6.005v21.472"/>
    </g>
</svg>
