<?xml version="1.0" encoding="utf-8"?>
<!-- Generator: Adobe Illustrator 18.0.0, SVG Export Plug-In . SVG Version: 6.00 Build 0)  -->
<!DOCTYPE svg PUBLIC "-//W3C//DTD SVG 1.1//EN" "http://www.w3.org/Graphics/SVG/1.1/DTD/svg11.dtd">
<svg version="1.1" xmlns="http://www.w3.org/2000/svg" xmlns:xlink="http://www.w3.org/1999/xlink"
	 viewBox="0 0 32.25 32.25" enable-background="new 0 0 32.25 32.25" xml:space="preserve">
<g id="Box">
	<rect x="0.375" y="0.333" width="31.458" height="31.5"/>
</g>
<g id="S-outlined">
	<path stroke="#FFFFFF" stroke-width="0.5" stroke-miterlimit="10" d="M23.909,28.521c-2.618,0-4.311-1.248-5.135-2.879l2.295-1.328
		c0.604,0.979,1.39,1.711,2.779,1.711c1.168,0,1.904-0.584,1.904-1.396c0-0.966-0.766-1.311-2.054-1.865l-0.701-0.309
		c-2.034-0.865-3.383-1.953-3.383-4.249c0-2.114,1.604-3.726,4.128-3.726c1.792,0,3.081,0.625,4.008,2.254l-2.19,1.406
		c-0.479-0.861-1.006-1.209-1.812-1.209c-0.825,0-1.353,0.521-1.353,1.209c0,0.852,0.521,1.188,1.729,1.711l0.704,0.309
		c2.396,1.021,3.746,2.07,3.746,4.43C28.581,27.134,26.588,28.521,23.909,28.521z"/>
</g>
<g id="J-outlined">
	<path id="_x3C_path_x3E_" stroke="#FFFFFF" stroke-width="0.5" stroke-miterlimit="10" d="M18.034,24.273
		c0,2.92-1.712,4.248-4.209,4.248c-2.255,0-3.564-1.168-4.229-2.576l0,0l0,0l0,0l2.296-1.391c0.443,0.777,0.846,1.442,1.812,1.442
		c0.926,0,1.511-0.354,1.511-1.771v-9.58h2.819V24.273z"/>
</g>
<g id="S">
	<path fill="#FFFFFF" d="M23.909,28.521c-2.618,0-4.311-1.248-5.135-2.879l2.295-1.328c0.604,0.979,1.39,1.711,2.779,1.711
		c1.168,0,1.904-0.584,1.904-1.396c0-0.966-0.766-1.311-2.054-1.865l-0.701-0.309c-2.034-0.865-3.383-1.953-3.383-4.249
		c0-2.114,1.604-3.726,4.128-3.726c1.792,0,3.081,0.625,4.008,2.254l-2.19,1.406c-0.479-0.861-1.006-1.209-1.812-1.209
		c-0.825,0-1.353,0.521-1.353,1.209c0,0.852,0.521,1.188,1.729,1.711l0.704,0.309c2.396,1.021,3.746,2.07,3.746,4.43
		C28.581,27.134,26.588,28.521,23.909,28.521z"/>
</g>
<g id="J">
	<path fill="#FFFFFF" d="M18.034,24.273c0,2.92-1.712,4.248-4.209,4.248c-2.255,0-3.564-1.168-4.229-2.576l0,0l0,0l0,0l2.296-1.391
		c0.443,0.777,0.846,1.442,1.812,1.442c0.926,0,1.511-0.354,1.511-1.771v-9.58h2.819V24.273z"/>
</g>
</svg>
