<?xml version="1.0" encoding="utf-8"?>
<!-- Generator: Adobe Illustrator 18.0.0, SVG Export Plug-In . SVG Version: 6.00 Build 0)  -->
<!DOCTYPE svg PUBLIC "-//W3C//DTD SVG 1.1//EN" "http://www.w3.org/Graphics/SVG/1.1/DTD/svg11.dtd">
<svg version="1.1" xmlns="http://www.w3.org/2000/svg" xmlns:xlink="http://www.w3.org/1999/xlink" x="0px" y="0px"
	 viewBox="0 0 128 128" style="enable-background:new 0 0 128 128;" xml:space="preserve">
<g class="box" fill="#010101">
	<rect class="st0" width="127.831" height="128"/>
</g>
<g class="s-outlined" fill="#010101" stroke="#FFFFFF" stroke-width="0.5" stroke-miterlimit="10">
	<path class="st1" d="M95.629,114.54c-10.638,0-17.518-5.071-20.866-11.699l9.326-5.396c2.454,3.978,5.648,6.953,11.292,6.953
		c4.746,0,7.737-2.373,7.737-5.673c0-3.925-3.113-5.327-8.346-7.578l-2.849-1.256c-8.265-3.515-13.747-7.936-13.747-17.266
		c0-8.59,6.518-15.141,16.774-15.141c7.282,0,12.52,2.54,16.286,9.159l-8.899,5.713c-1.946-3.499-4.088-4.913-7.363-4.913
		c-3.352,0-5.498,2.117-5.498,4.913c0,3.462,2.117,4.827,7.026,6.953l2.861,1.256c9.736,4.149,15.222,8.411,15.222,18.001
		C114.614,108.904,106.515,114.54,95.629,114.54z"/>
</g>
<g class="j-outlined">
	<path id="_x3C_path_x3E_" class="st1" d="M71.759,97.279c0,11.865-6.957,17.262-17.103,17.262c-9.163,0-14.482-4.746-17.185-10.468
		l0,0l0,0l0,0l9.33-5.652c1.8,3.157,3.438,5.86,7.363,5.86c3.763,0,6.14-1.438,6.14-7.196V58.155h11.455V97.279z"/>
</g>
<g class="s" fill="#FFFFFF">
	<path class="additional" d="M95.629,114.54c-10.638,0-17.518-5.071-20.866-11.699l9.326-5.396
		c2.454,3.978,5.648,6.953,11.292,6.953c4.746,0,7.737-2.373,7.737-5.673c0-3.925-3.113-5.327-8.346-7.578l-2.849-1.256
		c-8.265-3.515-13.747-7.936-13.747-17.266c0-8.59,6.518-15.141,16.774-15.141c7.282,0,12.52,2.54,16.286,9.159l-8.899,5.713
		c-1.946-3.499-4.088-4.913-7.363-4.913c-3.352,0-5.498,2.117-5.498,4.913c0,3.462,2.117,4.827,7.026,6.953l2.861,1.256
		c9.736,4.149,15.222,8.411,15.222,18.001C114.614,108.904,106.515,114.54,95.629,114.54z"/>
</g>
<g class="j" fill="#FFFFFF">
	<path class="newClassAgain" d="M71.759,97.279c0,11.865-6.957,17.262-17.103,17.262c-9.163,0-14.482-4.746-17.185-10.468l0,0l0,0
		l0,0l9.33-5.652c1.8,3.157,3.438,5.86,7.363,5.86c3.763,0,6.14-1.438,6.14-7.196V58.155h11.455V97.279z"/>
</g>
</svg>
