<?xml version="1.0" encoding="utf-8"?>
<svg xmlns="http://www.w3.org/2000/svg" class="music-note" x="0px" y="0px" xmlns:xlink="http://www.w3.org/1999/xlink" viewBox="0 0 128 128" enable-background="new 0 0 128 128">
    <path d="M113.128,41.419c-3.95-24.237-34.596-39.307-35.89-39.942c-1.628-0.766-3.524-0.653-5.052,0.286
	c-1.52,0.96-2.447,2.633-2.447,4.43v81.034c-6.012-3.881-14.114-6.271-23.224-6.271c-18.878,0-33.673,10.1-33.673,22.972
	c0,12.889,14.795,22.974,33.673,22.974c18.882,0,33.679-10.085,33.679-22.974c0-0.161-0.059-0.305-0.075-0.469
	c0.017-0.121,0.075-0.224,0.075-0.345V15.282c8.25,5.39,20.6,15.398,22.621,27.855c1.386,8.526-2.497,17.335-11.549,26.178
	c-2.054,2.012-2.096,5.322-0.075,7.392c2.004,2.063,5.319,2.106,7.39,0.082C110.214,65.416,115.115,53.519,113.128,41.419z
	 M46.515,116.449c-13.682,0-23.218-6.599-23.218-12.521c0-5.918,9.536-12.517,23.218-12.517c13.678,0,23.224,6.599,23.224,12.517
	C69.739,109.851,60.193,116.449,46.515,116.449z"/>
</svg>
