<?xml version="1.0" encoding="utf-8"?>
<svg xmlns="http://www.w3.org/2000/svg" x="0px" y="0px" xmlns:xlink="http://www.w3.org/1999/xlink" viewBox="0 0 128 128" enable-background="new 0 0 128 128" fill="#000000">
    <g class="famous-circle">
        <circle cx="64.13" cy="63.918" r="63.428" fill="#010101"/>
    </g>
    <g class="famous-logo">
        <path d="M60.997,128.665l0.036-39.991
		c-18.353-1.906-33.033-17.038-32.804-35.613c0.215-17.746,12.436-31.959,28.61-35.305c0.431-0.088,0.721-0.169,0.947,0.054
		c0.252,0.252,0.106,0.856,0.106,0.856l-1.222,5.942c0,0-0.083,0.371-0.195,0.485c-0.112,0.114-0.257,0.166-0.42,0.218
		c-7.026,2.199-13.383,6.941-16.451,12.698c-2.555,4.801-4.726,8.383-4.726,14.916c0,14.068,12.177,26.95,25.145,28.699V37.216
		c0-4.635,0.744-10.056,3.475-13.762c2.132-2.882,6.095-4.661,11.944-4.661c8.419,0,18.627,6.175,23.719,19.522
		c1.535,4.038,2.511,9.148,2.495,14.664c-0.044,18.524-14.452,33.681-32.721,35.668l-0.018,40.02 M94.57,52.35
		c0.316-7.376-1.834-13.303-4.739-18.049s-8.175-9.425-13.977-8.896c-3.47,0.314-5.543,1.621-6.331,3.481
		c-0.788,1.86-1.556,6.059-1.556,7.838c0,3.203,0,44.382,0,44.382c10.375-1.126,16.768-5.996,21.646-13.702
		C92.342,63.103,94.352,57.382,94.57,52.35z" fill="#FFFFFF" stroke="#FFFFFF" stroke-miterlimit="10"/>
    </g>
</svg>
