<?xml version="1.0" encoding="utf-8"?>
<!-- Generator: Adobe Illustrator 18.0.0, SVG Export Plug-In . SVG Version: 6.00 Build 0)  -->
<!DOCTYPE svg PUBLIC "-//W3C//DTD SVG 1.1//EN" "http://www.w3.org/Graphics/SVG/1.1/DTD/svg11.dtd">
<svg version="1.1" xmlns="http://www.w3.org/2000/svg" xmlns:xlink="http://www.w3.org/1999/xlink" x="0px" y="0px"
	 viewBox="0 0 128 31.9" enable-background="new 0 0 128 31.9" xml:space="preserve">
<g class="s_01">
	<path d="M122.7,13.3c0,0.6-0.2,1-0.6,1.4c-0.4,0.4-0.9,0.6-1.4,0.6s-1-0.2-1.4-0.6s-0.6-0.9-0.6-1.4c0-0.6,0.2-1.1,0.6-1.5
		c0.4-0.4,0.8-0.5,1.4-0.5c0.1,0,0.2,0,0.3,0s0.2,0,0.3,0.1c-0.3-0.5-0.8-0.9-1.6-1.2c-0.8-0.3-1.7-0.4-2.5-0.4
		c-0.8,0-1.5,0.1-2.1,0.4s-0.9,0.7-0.9,1.3c0,0.4,0.1,0.6,0.4,0.9c0.5,0.4,1.1,0.9,1.9,1.6c0.8,0.6,1.7,1.3,2.6,2
		c0.9,0.7,1.7,1.4,2.4,2c0.7,0.7,1.2,1.2,1.4,1.6c0.3,0.6,0.5,1.2,0.5,1.9c0,0.8-0.2,1.6-0.6,2.2c-0.4,0.6-0.9,1.2-1.5,1.7
		c-0.6,0.5-1.3,0.8-2,1c-0.8,0.2-1.5,0.4-2.3,0.4c-1.1,0-2.2-0.2-3.2-0.6c-1-0.4-1.9-1-2.6-1.9v2.5h-1v-6.3h1v1.2
		c0,0.7,0.2,1.3,0.5,1.8c0.4,0.5,0.8,1,1.4,1.3c0.5,0.4,1.1,0.6,1.8,0.8c0.7,0.2,1.3,0.3,1.9,0.3c0.3,0,0.7,0,1.1-0.1
		c0.4-0.1,0.8-0.2,1.2-0.3s0.7-0.3,1-0.6c0.3-0.3,0.4-0.6,0.4-1c0-0.1-0.1-0.3-0.1-0.5c-0.1-0.2-0.2-0.4-0.3-0.6
		c-1.1-1-2.3-2-3.5-2.9c-1.2-0.9-2.4-1.8-3.6-2.8c-0.5-0.4-0.9-0.9-1.2-1.5c-0.3-0.6-0.5-1.3-0.5-2.2c0-0.7,0.2-1.4,0.5-2
		c0.3-0.6,0.8-1.1,1.3-1.4c0.5-0.4,1.2-0.7,1.9-0.9c0.7-0.2,1.4-0.3,2.1-0.3s1.4,0.1,2.1,0.3c0.7,0.2,1.3,0.5,1.8,0.8
		c0.5,0.4,1,0.8,1.3,1.4S122.7,12.5,122.7,13.3z M121.8,22.8c0-0.5-0.3-1-0.8-1.5c-0.2-0.2-0.6-0.5-1.1-0.9c-0.5-0.4-1-0.8-1.6-1.3
		c-0.6-0.5-1.2-1-1.8-1.5c-0.6-0.5-1.2-1-1.8-1.5s-1-0.9-1.4-1.2c-0.4-0.4-0.6-0.6-0.7-0.8c-0.1-0.2-0.2-0.4-0.3-0.6
		c-0.1-0.2-0.2-0.4-0.2-0.6c0,0.1,0,0.3-0.1,0.4c0,0.1,0,0.3,0,0.4c0,0.6,0.1,1,0.4,1.4s0.6,0.8,1,1.2l5.2,4.2
		c0.3,0.2,0.6,0.5,0.9,0.7c0.3,0.2,0.6,0.4,0.8,0.7c0.2,0.3,0.4,0.6,0.6,0.9c0.2,0.3,0.3,0.7,0.3,1.1c0.2-0.2,0.3-0.3,0.4-0.5
		C121.8,23.2,121.8,23,121.8,22.8z M122.2,21c-0.1-0.5-0.2-0.9-0.5-1.3c-0.2-0.4-0.6-0.7-1.1-1.2c-0.5-0.4-1-0.9-1.7-1.4
		s-1.2-1-1.9-1.5c-0.6-0.5-1.3-1-1.8-1.4c-0.6-0.5-1-0.9-1.5-1.3c-0.4-0.4-0.7-0.7-0.7-1v0.1c0,0.4,0.1,0.8,0.3,1.1
		c0.2,0.3,0.4,0.7,0.7,1c0.3,0.3,0.6,0.6,1,0.8c0.3,0.3,0.7,0.5,1,0.8c0,0,0.2,0.1,0.5,0.4c0.3,0.2,0.6,0.5,1.1,0.9
		c0.4,0.3,0.9,0.7,1.4,1.1c0.5,0.4,1,0.8,1.4,1.2c0.5,0.4,0.8,0.7,1.2,1C121.9,20.7,122.1,20.9,122.2,21z M119.6,13.3
		c0,0.3,0.1,0.6,0.3,0.7c0.2,0.2,0.4,0.3,0.7,0.3c0.3,0,0.6-0.1,0.8-0.3c0.2-0.2,0.3-0.4,0.3-0.7c0-0.3-0.1-0.6-0.3-0.8
		c-0.2-0.2-0.5-0.3-0.8-0.3c-0.3,0-0.6,0.1-0.7,0.3C119.7,12.8,119.6,13,119.6,13.3z"/>
</g>
<g class="n">
	<path d="M101.7,26.7v-1h1.4V12.8c0-0.9-0.3-1.6-0.9-2.1c-0.6-0.5-1.3-0.8-2.2-0.8c-0.4,0-0.8,0.1-1.1,0.2s-0.6,0.4-0.9,0.7
		c-0.3,0.3-0.5,0.6-0.6,1c-0.1,0.4-0.2,0.7-0.2,1.1v12.9h1.4v1h-6.9v-1h0.9v-9.6c0-1,0.2-2,0.6-2.9c0.4-0.9,0.9-1.7,1.6-2.3
		c0.7-0.6,1.5-1.2,2.4-1.5c0.9-0.4,1.9-0.5,2.9-0.5c1,0,2,0.2,2.9,0.6c0.9,0.4,1.7,0.9,2.4,1.5s1.2,1.4,1.6,2.3s0.6,1.8,0.6,2.9v9.6
		h1v1H101.7z M94.8,12.4c-0.4,0.5-0.7,1.1-0.9,1.8c-0.2,0.6-0.3,1.3-0.3,2v9.6h0.9V14.4C94.4,13.7,94.6,13.1,94.8,12.4z M96.4,11.5
		c-0.3,0.4-0.6,0.8-0.8,1.3s-0.3,1-0.3,1.5v11.4h0.8V12.8C96.2,12.3,96.3,11.9,96.4,11.5z M104.7,14.3c0-1-0.3-1.8-0.9-2.6
		c0.1,0.3,0.1,0.6,0.1,1.1v12.9h0.7V14.3z M106.5,16.1c0-1.4-0.4-2.7-1.3-3.7c0.2,0.7,0.4,1.3,0.4,1.9v11.4h0.9V16.1z"/>
</g>
<g class="o">
	<path d="M90.1,19.6c0,1-0.2,2-0.6,2.8c-0.4,0.9-0.9,1.6-1.6,2.3s-1.4,1.2-2.3,1.5c-0.9,0.4-1.8,0.6-2.8,0.6c-1.1,0-2-0.2-3-0.5
		s-1.7-0.8-2.4-1.5s-1.2-1.4-1.6-2.3c-0.4-0.9-0.6-1.9-0.6-3v-3.7c0-1,0.2-1.9,0.6-2.8c0.4-0.9,0.9-1.6,1.6-2.2
		c0.7-0.6,1.4-1.1,2.3-1.5c0.9-0.4,1.8-0.5,2.8-0.5c1.1,0,2,0.2,3,0.5c0.9,0.3,1.7,0.8,2.4,1.4c0.7,0.6,1.2,1.4,1.6,2.2
		c0.4,0.9,0.6,1.8,0.6,2.9V19.6z M77.5,23.4c-0.2-0.7-0.4-1.4-0.4-2v-7c0-0.7,0.1-1.4,0.3-1.9c-0.8,1.1-1.2,2.3-1.2,3.5v3.7
		c0,0.7,0.1,1.3,0.3,2C76.7,22.3,77.1,22.9,77.5,23.4z M79.1,24.2c-0.1-0.4-0.2-0.7-0.2-1.2V12.7c0-0.4,0.1-0.8,0.2-1.2
		c-0.3,0.4-0.5,0.8-0.7,1.3c-0.2,0.5-0.3,1-0.3,1.5v7.2c0,0.5,0.1,1,0.3,1.5C78.5,23.4,78.8,23.8,79.1,24.2z M85.7,12.8
		c0-0.9-0.3-1.6-0.9-2.1c-0.6-0.5-1.3-0.8-2.2-0.8c-0.4,0-0.8,0.1-1.1,0.2s-0.6,0.4-0.9,0.7s-0.5,0.6-0.6,1
		c-0.1,0.4-0.2,0.7-0.2,1.1V23c0,0.4,0.1,0.8,0.2,1.1c0.2,0.4,0.4,0.7,0.6,0.9s0.6,0.5,0.9,0.6c0.4,0.2,0.7,0.2,1.1,0.2
		c0.8,0,1.5-0.3,2.1-0.8c0.6-0.6,0.8-1.3,0.8-2.1V12.8z M87.3,14.3c0-1-0.3-1.8-0.9-2.6c0.1,0.4,0.2,0.7,0.2,1.1V23
		c0,0.3-0.1,0.7-0.2,1.1c0.3-0.4,0.5-0.8,0.6-1.2c0.2-0.4,0.2-0.9,0.2-1.4V14.3z M89.2,15.9c0-0.7-0.1-1.3-0.3-1.9
		c-0.2-0.6-0.5-1.1-0.9-1.6c0.2,0.7,0.4,1.3,0.4,1.9v7c0,0.7-0.1,1.4-0.4,2c0.4-0.5,0.8-1.1,1-1.8c0.2-0.7,0.3-1.3,0.3-2V15.9z"/>
</g>
<g class="c">
	<path d="M72.7,14.4c0-0.6-0.1-1.2-0.4-1.8s-0.6-1-1-1.4c-0.4-0.4-0.9-0.7-1.5-1c-0.6-0.2-1.2-0.3-1.8-0.3c-0.4,0-0.7,0.1-1.1,0.2
		c-0.4,0.1-0.7,0.3-0.9,0.6c-0.3,0.3-0.5,0.5-0.6,0.9c-0.2,0.3-0.2,0.7-0.2,1.1v10.3c0,0.4,0.1,0.8,0.2,1.1c0.2,0.3,0.4,0.6,0.7,0.9
		s0.6,0.4,0.9,0.6c0.4,0.1,0.7,0.2,1.1,0.2c0.4,0,0.7-0.1,1.2-0.2c0.4-0.1,0.9-0.3,1.3-0.5c0.4-0.2,0.8-0.5,1.2-0.7
		c0.4-0.3,0.6-0.5,0.8-0.9l0.8,0.6c-0.3,0.4-0.6,0.8-1,1.1c-0.4,0.3-0.9,0.6-1.3,0.8s-1,0.4-1.5,0.6c-0.5,0.1-1,0.2-1.5,0.2
		c-1,0-2-0.2-2.9-0.5c-0.9-0.4-1.7-0.9-2.4-1.5c-0.7-0.6-1.2-1.4-1.6-2.3s-0.6-1.9-0.6-2.9v-3.3c0-1,0.2-1.9,0.6-2.8
		c0.4-0.9,0.9-1.6,1.6-2.3c0.7-0.7,1.4-1.2,2.3-1.6c0.9-0.4,1.8-0.6,2.8-0.6c1,0,1.9,0.2,2.8,0.6c0.8,0.4,1.5,1,2.1,1.8V9.4h1v5
		H72.7z M62.9,23.2c-0.2-0.7-0.4-1.3-0.4-2v-6.8c0-0.6,0.1-1.3,0.4-1.9c-0.8,1.1-1.3,2.3-1.3,3.7v3.3c0,0.7,0.1,1.3,0.3,2
		C62.1,22,62.4,22.6,62.9,23.2z M64.4,24c-0.1-0.2-0.1-0.4-0.1-0.5c0-0.2,0-0.4,0-0.5V12.5c0-0.2,0-0.3,0-0.5c0-0.2,0.1-0.3,0.1-0.5
		c-0.7,0.8-1,1.7-1,2.7v7C63.5,22.3,63.8,23.2,64.4,24z"/>
</g>
<g class="i">
	<path d="M52.8,26.7v-1h0.8V9.8h-1.2v-1h5.6v16.8h1v1H52.8z M58.1,4.4c0,0.6-0.2,1.1-0.6,1.6c-0.4,0.4-0.9,0.7-1.6,0.7
		c-0.6,0-1.2-0.2-1.6-0.6c-0.4-0.4-0.6-1-0.6-1.6c0-0.6,0.2-1.2,0.7-1.6c0.4-0.4,1-0.6,1.6-0.6c0.6,0,1.2,0.2,1.6,0.6
		C57.9,3.2,58.1,3.7,58.1,4.4z M55.4,3.2c-0.2,0.1-0.4,0.3-0.6,0.5c-0.1,0.2-0.2,0.4-0.2,0.7c0,0.3,0.1,0.5,0.2,0.7
		c0.1,0.2,0.3,0.4,0.6,0.5V3.2z M55.4,9.8h-0.8v15.9h0.8V9.8z M57.1,4.4c0-0.3-0.1-0.5-0.2-0.7c-0.1-0.2-0.3-0.4-0.6-0.4v2.3
		c0.2-0.1,0.4-0.3,0.6-0.5C57.1,4.9,57.1,4.6,57.1,4.4z M57.1,9.8h-0.8v15.9h0.8V9.8z"/>
</g>
<g class="s">
	<path d="M50.4,13.3c0,0.6-0.2,1-0.6,1.4c-0.4,0.4-0.9,0.6-1.4,0.6s-1-0.2-1.4-0.6c-0.4-0.4-0.6-0.9-0.6-1.4c0-0.6,0.2-1.1,0.6-1.5
		s0.8-0.5,1.4-0.5c0.1,0,0.2,0,0.3,0s0.2,0,0.3,0.1c-0.3-0.5-0.8-0.9-1.7-1.2c-0.8-0.3-1.7-0.4-2.5-0.4c-0.8,0-1.5,0.1-2.1,0.4
		s-0.9,0.7-0.9,1.3c0,0.4,0.1,0.6,0.4,0.9c0.5,0.4,1.1,0.9,1.9,1.6c0.8,0.6,1.7,1.3,2.6,2s1.7,1.4,2.4,2s1.2,1.2,1.4,1.6
		c0.3,0.6,0.5,1.2,0.5,1.9c0,0.8-0.2,1.6-0.6,2.2c-0.4,0.6-0.9,1.2-1.5,1.7c-0.6,0.5-1.3,0.8-2,1c-0.8,0.2-1.5,0.4-2.3,0.4
		c-1.1,0-2.2-0.2-3.2-0.6c-1-0.4-1.9-1-2.6-1.9v2.5h-1v-6.3h1v1.2c0,0.7,0.2,1.3,0.5,1.8c0.4,0.5,0.8,1,1.4,1.3
		c0.5,0.4,1.1,0.6,1.8,0.8c0.7,0.2,1.3,0.3,1.9,0.3c0.3,0,0.7,0,1.1-0.1c0.4-0.1,0.8-0.2,1.2-0.3c0.4-0.1,0.7-0.3,1-0.6
		c0.3-0.3,0.4-0.6,0.4-1c0-0.1-0.1-0.3-0.1-0.5c-0.1-0.2-0.2-0.4-0.3-0.6c-1.1-1-2.3-2-3.5-2.9c-1.2-0.9-2.4-1.8-3.6-2.8
		c-0.5-0.4-0.9-0.9-1.2-1.5c-0.3-0.6-0.5-1.3-0.5-2.2c0-0.7,0.2-1.4,0.5-2c0.3-0.6,0.8-1.1,1.3-1.4c0.5-0.4,1.2-0.7,1.9-0.9
		c0.7-0.2,1.4-0.3,2.1-0.3s1.4,0.1,2.1,0.3c0.7,0.2,1.3,0.5,1.8,0.8c0.5,0.4,1,0.8,1.3,1.4C50.3,11.9,50.4,12.5,50.4,13.3z
		 M49.6,22.8c0-0.5-0.3-1-0.8-1.5c-0.2-0.2-0.6-0.5-1.1-0.9c-0.5-0.4-1-0.8-1.6-1.3c-0.6-0.5-1.2-1-1.8-1.5c-0.6-0.5-1.2-1-1.8-1.5
		c-0.6-0.5-1-0.9-1.4-1.2c-0.4-0.4-0.6-0.6-0.7-0.8c-0.1-0.2-0.2-0.4-0.3-0.6c-0.1-0.2-0.2-0.4-0.2-0.6c0,0.1,0,0.3-0.1,0.4
		c0,0.1,0,0.3,0,0.4c0,0.6,0.1,1,0.4,1.4c0.3,0.4,0.6,0.8,1,1.2l5.2,4.2c0.3,0.2,0.6,0.5,0.9,0.7c0.3,0.2,0.6,0.4,0.8,0.7
		c0.2,0.3,0.4,0.6,0.6,0.9s0.3,0.7,0.3,1.1c0.2-0.2,0.3-0.3,0.4-0.5C49.5,23.2,49.6,23,49.6,22.8z M49.9,21
		c-0.1-0.5-0.2-0.9-0.5-1.3c-0.2-0.4-0.6-0.7-1.1-1.2c-0.5-0.4-1-0.9-1.7-1.4s-1.2-1-1.9-1.5c-0.6-0.5-1.3-1-1.8-1.4s-1-0.9-1.5-1.3
		c-0.4-0.4-0.7-0.7-0.7-1v0.1c0,0.4,0.1,0.8,0.3,1.1c0.2,0.3,0.4,0.7,0.7,1c0.3,0.3,0.6,0.6,1,0.8c0.3,0.3,0.7,0.5,1,0.8
		c0,0,0.2,0.1,0.5,0.4c0.3,0.2,0.6,0.5,1.1,0.9c0.4,0.3,0.9,0.7,1.4,1.1c0.5,0.4,1,0.8,1.4,1.2c0.5,0.4,0.8,0.7,1.2,1
		C49.6,20.7,49.8,20.9,49.9,21z M47.4,13.3c0,0.3,0.1,0.6,0.3,0.7s0.4,0.3,0.7,0.3c0.3,0,0.6-0.1,0.8-0.3c0.2-0.2,0.3-0.4,0.3-0.7
		c0-0.3-0.1-0.6-0.3-0.8c-0.2-0.2-0.5-0.3-0.8-0.3c-0.3,0-0.6,0.1-0.7,0.3C47.5,12.8,47.4,13,47.4,13.3z"/>
</g>
<g class="a">
	<path d="M30.6,26.7v-1.3c-0.5,0.5-1,0.9-1.6,1c-0.6,0.2-1.2,0.2-1.9,0.2c-0.4,0-0.9-0.1-1.5-0.2c-0.5-0.2-1-0.3-1.4-0.5
		c-1.3-0.6-2.3-1.5-3.1-2.6c-0.7-1.1-1.1-2.4-1.1-3.9v-3.3c0-1,0.2-2,0.6-2.9s0.9-1.7,1.6-2.3c0.7-0.6,1.5-1.2,2.4-1.5
		c0.9-0.4,1.9-0.5,2.9-0.5c1,0,2,0.2,2.9,0.6c0.9,0.4,1.7,0.9,2.4,1.5c0.7,0.6,1.2,1.4,1.6,2.3c0.4,0.9,0.6,1.8,0.6,2.9v9.6h1.2v1
		H30.6z M22.4,23.2c-0.2-0.7-0.4-1.3-0.4-2v-6.8c0-0.6,0.1-1.3,0.4-1.9c-0.4,0.5-0.7,1.1-0.9,1.8c-0.2,0.6-0.3,1.3-0.3,2v3.3
		C21.1,20.8,21.6,22,22.4,23.2z M24,24c-0.1-0.4-0.2-0.7-0.2-1.1V12.6c0-0.3,0.1-0.7,0.2-1.1c-0.3,0.4-0.6,0.8-0.7,1.3
		c-0.2,0.5-0.3,0.9-0.3,1.5v7c0,0.5,0.1,1,0.3,1.5C23.4,23.2,23.7,23.6,24,24z M30.6,12.6c0-0.8-0.3-1.5-0.9-2
		c-0.6-0.5-1.3-0.8-2.1-0.8c-0.4,0-0.7,0.1-1.1,0.2c-0.4,0.1-0.7,0.3-0.9,0.6c-0.3,0.3-0.5,0.5-0.6,0.9s-0.2,0.7-0.2,1.1v10.3
		c0,0.4,0.1,0.8,0.2,1.1c0.2,0.3,0.4,0.6,0.6,0.9c0.3,0.2,0.6,0.4,0.9,0.6c0.4,0.1,0.7,0.2,1.1,0.2c0.8,0,1.5-0.3,2.1-0.8
		c0.6-0.5,0.9-1.2,0.9-2V12.6z M32.3,14.3c0-0.9-0.3-1.7-0.8-2.5c0,0.1,0,0.3,0,0.4c0,0.1,0,0.3,0,0.4v13.1h0.7V14.3z M34.1,16.1
		c0-1.4-0.4-2.7-1.3-3.8c0.2,0.7,0.4,1.3,0.4,2v11.4h0.9V16.1z"/>
</g>
<g class="e">
	<path d="M8.3,18v4.7c0,1,0.3,1.8,1,2.2c0.7,0.5,1.5,0.7,2.4,0.7c0.6,0,1.1-0.1,1.7-0.3c0.6-0.2,1.1-0.5,1.6-0.9
		c0.5-0.4,0.9-0.8,1.3-1.3c0.4-0.5,0.7-1,0.9-1.5l0.9,0.3c-0.3,0.7-0.6,1.3-1.1,1.9c-0.5,0.6-1,1.1-1.6,1.5c-0.6,0.4-1.2,0.7-1.9,1
		s-1.4,0.3-2.1,0.3c-1.1,0-2.1-0.2-3-0.5c-0.9-0.3-1.8-0.8-2.5-1.5c-0.7-0.6-1.2-1.4-1.7-2.3c-0.4-0.9-0.6-1.9-0.6-3v-3.3
		c0-1,0.2-1.9,0.6-2.8c0.4-0.9,0.9-1.6,1.6-2.3c0.7-0.7,1.4-1.2,2.3-1.6C9.1,9.1,10,8.9,11,8.9c1.1,0,2,0.2,3,0.5s1.7,0.8,2.4,1.5
		c0.7,0.6,1.2,1.4,1.6,2.3s0.6,1.9,0.6,3V18H8.3z M5.9,23.2c-0.2-0.7-0.4-1.4-0.4-2v-6.8c0-0.7,0.1-1.4,0.3-1.9
		c-0.4,0.5-0.7,1.1-0.9,1.8c-0.2,0.6-0.3,1.3-0.3,2v3.3c0,0.7,0.1,1.3,0.3,2C5.2,22.1,5.5,22.7,5.9,23.2z M7.5,24
		c-0.1-0.4-0.2-0.7-0.2-1.2V12.7c0-0.4,0.1-0.8,0.2-1.2c-0.3,0.4-0.6,0.8-0.7,1.3c-0.2,0.5-0.3,1-0.3,1.5v7c0,0.5,0.1,1,0.3,1.5
		C7,23.2,7.2,23.6,7.5,24z M14.1,12.8c0-0.9-0.3-1.6-0.9-2.1c-0.6-0.5-1.3-0.8-2.2-0.8c-0.4,0-0.8,0.1-1.1,0.2
		c-0.3,0.2-0.6,0.4-0.9,0.7s-0.5,0.6-0.6,1c-0.1,0.4-0.2,0.7-0.2,1.1v4.3h5.8V12.8z M15.8,14.3c0-1-0.3-1.8-0.9-2.6
		c0.1,0.4,0.2,0.7,0.2,1.1v4.3h0.7V14.3z M17.6,16.1c0-1.4-0.4-2.7-1.3-3.7c0.2,0.4,0.3,0.9,0.3,1.4c0,0.5,0.1,0.9,0.1,1.4
		c0,0.3,0,0.7,0,1s0,0.6,0,1h0.9V16.1z"/>
</g>
</svg>
