<?xml version="1.0" encoding="utf-8"?>
<svg xmlns="http://www.w3.org/2000/svg" x="0px" y="0px" xmlns:xlink="http://www.w3.org/1999/xlink" viewBox="0 0 128 128" enable-background="new 0 0 128 128">
    <g class="laptop-base">
        <g>
            <path d="M123.509,95.177H4.646c-1.902,0-3.45,1.547-3.45,3.449v3.406c0,4.708,5.085,8.741,9.248,8.741H117.71
			c4.408,0,9.248-4.84,9.248-9.248v-2.899C126.958,96.724,125.411,95.177,123.509,95.177z M117.71,103.874H10.444
			c-0.746,0-2.165-1.207-2.338-1.798h111.708C119.329,102.84,118.253,103.812,117.71,103.874z"/>
        </g>
    </g>
    <g class="laptop-screen-inline">
        <g>
            <path d="M106.114,22.7H22.041c-1.902,0-3.45,1.547-3.45,3.449v63.78c0,1.902,1.547,3.45,3.45,3.45h84.074
			c1.902,0,3.449-1.548,3.449-3.45v-63.78C109.563,24.247,108.017,22.7,106.114,22.7z M25.49,86.479V29.599h77.174v56.881H25.49z"/>
        </g>
    </g>
    <g class="laptop-screen-outline">
        <g>
            <path d="M110.463,14.002H17.692c-4.446,0-7.798,3.353-7.798,7.798v68.128c0,1.902,1.547,3.45,3.45,3.45s3.45-1.548,3.45-3.45V21.8
			c0-0.63,0.269-0.899,0.899-0.899h92.771c0.621,0,0.898,0.581,0.898,1.157v67.87c0,1.902,1.548,3.45,3.45,3.45
			s3.449-1.548,3.449-3.45v-67.87C118.261,17.541,114.836,14.002,110.463,14.002z"/>
        </g>
    </g>
</svg>
