<?xml version="1.0" encoding="utf-8"?>
<!-- Generator: Adobe Illustrator 18.0.0, SVG Export Plug-In . SVG Version: 6.00 Build 0)  -->
<!DOCTYPE svg PUBLIC "-//W3C//DTD SVG 1.1//EN" "http://www.w3.org/Graphics/SVG/1.1/DTD/svg11.dtd">
<svg version="1.1" xmlns="http://www.w3.org/2000/svg" xmlns:xlink="http://www.w3.org/1999/xlink" x="0px" y="0px"
	 viewBox="0 0 128 128" style="enable-background:new 0 0 128 128;" xml:space="preserve">
<g id="cloud">
	<path d="M101.956,49.858c-0.918,0-1.847,0.059-2.81,0.186c-5.468-13.659-18.849-22.928-33.66-22.928
		c-12.982,0-25.014,7.073-31.488,18.264C16.392,41.471,0.86,55.307,0.86,72.349c0,15.22,12.377,27.605,27.594,27.605h73.502
		c13.803,0,25.036-11.236,25.036-25.048C126.992,61.095,115.759,49.858,101.956,49.858z"/>
</g>
<g id="cloud-fill">
	<path style="fill:#FFFFFF;" d="M101.956,92.341H28.454c-11.017,0-19.981-8.969-19.981-19.992c0-11.02,8.964-19.986,19.981-19.986
		c1.983,0,4.035,0.368,6.277,1.123c1.836,0.617,3.85-0.242,4.669-2.003c4.727-10.181,14.966-16.755,26.087-16.755
		c11.657,0,21.784,6.933,26.263,17.521c-2.847,1.356-6.665,3.737-9.656,7.789c-1.249,1.692-0.887,4.073,0.804,5.324
		c0.679,0.501,1.471,0.742,2.254,0.742c1.169,0,2.321-0.534,3.067-1.546c3.609-4.892,9.269-6.433,9.359-6.456
		c1.68-0.432,3.07-0.632,4.379-0.632c9.607,0,17.423,7.821,17.423,17.436S111.563,92.341,101.956,92.341z"/>
</g>
</svg>
