<?xml version="1.0" encoding="utf-8"?>
<svg xmlns="http://www.w3.org/2000/svg" x="0px" y="0px" xmlns:xlink="http://www.w3.org/1999/xlink" viewBox="0 0 128 128" enable-background="new 0 0 128 128">
    <g class="pin-circle-base">
        <path d="M78.677,85.902l-1.431,9.359c23.862,1.788,36.677,8.185,36.677,11.061c0,3.36-17.379,11.572-49.568,11.572
		c-32.212,0-49.591-8.211-49.591-11.572c0-2.899,13.004-9.391,37.25-11.121L50.47,85.87c-23.681,1.819-45.134,8.373-45.134,20.452
		c0,14.425,30.586,21.001,59.018,21.001c28.41,0,58.996-6.576,58.996-21.001C123.351,94.315,102.154,87.768,78.677,85.902z"/>
    </g>
    <g class="pin-circle-pin">
        <path d="M45.477,55.996c1.679,1.305,3.449,2.421,5.339,3.345c1.642,0.802,3.336,1.438,5.105,1.941l4.013,24.105l1.581,9.452
		l3.283,19.574l2.982-19.551l1.431-9.47l3.689-24.142c1.747-0.507,3.441-1.141,5.06-1.945c1.86-0.915,3.629-2.029,5.286-3.323
		c1.009-0.788,2.063-1.532,2.982-2.455c12.04-12.053,12.04-31.676,0-43.739c-11.694-11.694-32.077-11.675-43.748,0
		c-5.843,5.84-9.066,13.612-9.066,21.868c0,8.266,3.223,16.033,9.066,21.87C43.415,54.456,44.461,55.2,45.477,55.996z
		 M49.145,16.453c4.066-4.06,9.465-6.299,15.21-6.299c5.745,0,11.137,2.238,15.21,6.299c8.381,8.388,8.381,22.027,0,30.405
		c-0.753,0.751-1.604,1.354-2.432,1.962c-0.851,0.621-1.747,1.148-2.673,1.625c-6.28,3.234-13.975,3.225-20.232-0.017
		c-0.926-0.469-1.807-0.992-2.635-1.598c-0.844-0.612-1.694-1.226-2.447-1.973c-4.073-4.058-6.303-9.459-6.303-15.2
		C42.842,25.918,45.071,20.517,49.145,16.453z"/>
    </g>
</svg>
