<?xml version="1.0" encoding="utf-8"?>
<!-- Generator: Adobe Illustrator 18.0.0, SVG Export Plug-In . SVG Version: 6.00 Build 0)  -->
<!DOCTYPE svg PUBLIC "-//W3C//DTD SVG 1.1//EN" "http://www.w3.org/Graphics/SVG/1.1/DTD/svg11.dtd">
<svg version="1.1" xmlns="http://www.w3.org/2000/svg" xmlns:xlink="http://www.w3.org/1999/xlink" x="0px" y="0px"
	 viewBox="-77 51 128 128" enable-background="new -77 51 128 128" xml:space="preserve">
<g id="ham-md-bottom">
	<path d="M5,135h-36c-1.104,0-2-0.896-2-2s0.896-2,2-2H5c1.104,0,2,0.896,2,2S6.104,135,5,135z"/>
</g>
<g id="ham-md-middle">
	<path d="M5,117h-36c-1.104,0-2-0.896-2-2s0.896-2,2-2H5c1.104,0,2,0.896,2,2S6.104,117,5,117z"/>
</g>
<g id="ham-md-top">
	<path d="M5,99h-36c-1.104,0-2-0.896-2-2s0.896-2,2-2H5c1.104,0,2,0.896,2,2S6.104,99,5,99z"/>
</g>
</svg>
