<?xml version="1.0" encoding="utf-8"?>
<!-- Generator: Adobe Illustrator 18.0.0, SVG Export Plug-In . SVG Version: 6.00 Build 0)  -->
<!DOCTYPE svg PUBLIC "-//W3C//DTD SVG 1.1//EN" "http://www.w3.org/Graphics/SVG/1.1/DTD/svg11.dtd">
<svg version="1.1" id="paperplane" xmlns="http://www.w3.org/2000/svg" xmlns:xlink="http://www.w3.org/1999/xlink" x="0px" y="0px"
	 viewBox="0 0 128 128" enable-background="new 0 0 128 128" xml:space="preserve">
<path d="M126.812,19.087c-0.014-0.506-0.156-0.944-0.399-1.389c-0.071-0.142-0.015-0.319-0.121-0.451
	c-0.05-0.054-0.121-0.046-0.171-0.093c-0.057-0.073-0.057-0.164-0.107-0.223c-0.47-0.463-1.047-0.745-1.66-0.855
	c-0.064-0.009-0.1,0.025-0.157,0.016c-0.556-0.07-1.133-0.038-1.653,0.194L2.636,68.879c-1.218,0.534-1.966,1.799-1.845,3.131
	c0.107,1.332,1.062,2.444,2.372,2.761l27.124,6.574l13.188,28.137c0.093,0.183,0.264,0.274,0.385,0.431
	c0.057,0.098,0.022,0.223,0.107,0.31c0.121,0.153,0.313,0.226,0.47,0.344c0.121,0.103,0.228,0.205,0.385,0.282
	c0.47,0.26,0.955,0.433,1.482,0.433c0.121,0,0.228-0.009,0.349-0.021c0.591-0.066,1.09-0.346,1.532-0.689
	c0.05-0.045,0.135-0.022,0.193-0.07l20.782-18.335l20.562,6.745c1.532,0.479,3.206-0.253,3.847-1.729l33.108-76.802
	c0.064-0.187,0.014-0.392,0.05-0.588C126.798,19.545,126.812,19.343,126.812,19.087z M49.702,80.831
	c-0.057,0.041-0.036,0.117-0.093,0.16c-0.413,0.422-0.762,0.914-0.891,1.509L45.22,98.489l-8.749-18.69l53.983-35.187L49.702,80.831
	z M90.334,37.233L31.911,75.306l-18.296-4.428L90.334,37.233z M51.39,99.513l2.686-12.3l8.2,2.69L51.39,99.513z M88.973,92.09
	L57.909,81.893l57.474-51.084L88.973,92.09z"/>
</svg>
