<?xml version="1.0" encoding="utf-8"?>
<!-- Generator: Adobe Illustrator 18.0.0, SVG Export Plug-In . SVG Version: 6.00 Build 0)  -->
<!DOCTYPE svg PUBLIC "-//W3C//DTD SVG 1.1//EN" "http://www.w3.org/Graphics/SVG/1.1/DTD/svg11.dtd">
<svg version="1.1" id="musical-notes" xmlns="http://www.w3.org/2000/svg" xmlns:xlink="http://www.w3.org/1999/xlink" x="0px"
	 y="0px" viewBox="0 0 128 128" style="enable-background:new 0 0 128 128;" xml:space="preserve">
<path d="M125.159,7.894c0-1.581-0.74-3.078-2.013-4.039c-1.265-0.957-2.922-1.273-4.435-0.821L51.712,22.21
	c-0.098,0.028-0.168,0.1-0.266,0.14c-0.336,0.116-0.632,0.296-0.939,0.48c-0.266,0.168-0.532,0.308-0.75,0.504
	c-0.246,0.216-0.424,0.484-0.623,0.752c-0.196,0.256-0.394,0.492-0.532,0.789c-0.138,0.276-0.208,0.573-0.286,0.881
	c-0.098,0.332-0.188,0.66-0.208,1.016c-0.01,0.096-0.058,0.188-0.058,0.296v63.307c-4.779-2.726-10.861-4.403-17.673-4.403
	c-15.602,0-27.813,8.449-27.813,19.232c0,10.783,12.211,19.232,27.813,19.232c15.579,0,27.783-8.449,27.783-19.232
	c0-0.128-0.05-0.248-0.05-0.376c0-0.088,0.05-0.168,0.05-0.256V30.88l56.888-16.282V71.2c-4.787-2.726-10.879-4.403-17.703-4.403
	c-15.589,0-27.793,8.453-27.793,19.232c0,10.795,12.204,19.236,27.793,19.236c15.601,0,27.813-8.441,27.813-19.236
	c0-0.116-0.048-0.236-0.048-0.372c0-0.08,0.048-0.16,0.048-0.256V7.894z M30.377,114.326c-10.13,0-17.703-4.819-17.703-9.122
	c0-4.307,7.573-9.122,17.703-9.122c10.11,0,17.673,4.815,17.673,9.122C48.05,109.507,40.487,114.326,30.377,114.326z M97.346,95.155
	c-10.118,0-17.683-4.819-17.683-9.126c0-4.303,7.565-9.122,17.683-9.122c10.13,0,17.703,4.819,17.703,9.122
	C115.048,90.336,107.476,95.155,97.346,95.155z"/>
</svg>
