<?xml version="1.0" encoding="utf-8"?>
<svg xmlns="http://www.w3.org/2000/svg" x="0px" y="0px" xmlns:xlink="http://www.w3.org/1999/xlink" viewBox="0 0 128 128" enable-background="new 0 0 128 128">
    <g class="eye-outline">
        <path d="M125.533,60.162l-3.819-3.859c-13.609-13.895-30.557-31.184-57.793-31.184c-27.075,0-45.178,18.371-58.398,31.791
		l-3.222,3.252c-1.99,1.99-1.99,5.212,0,7.202l2.605,2.617c13.319,13.448,31.563,31.87,59.015,31.87
		c27.593,0,44.662-17.309,58.349-31.204l3.262-3.283C127.522,65.374,127.522,62.152,125.533,60.162z M63.921,91.664
		c-22.678,0-37.678-14.634-50.848-27.912c13.21-13.397,28.208-28.448,50.848-28.448c22.958,0,37.599,14.939,50.531,28.119
		l0.318,0.329C101.818,76.892,87.098,91.664,63.921,91.664z"/>
    </g>
    <g class="eye-pupil">
        <path d="M63.921,52.91c-5.849,0-10.583,4.726-10.583,10.575c0,5.849,4.734,10.573,10.583,10.573
		c5.829,0,10.565-4.724,10.565-10.573C74.485,57.636,69.749,52.91,63.921,52.91z"/>
    </g>
</svg>
