<?xml version="1.0" encoding="utf-8"?>
<svg xmlns="http://www.w3.org/2000/svg" class="trash-thin" x="0px" y="0px" xmlns:xlink="http://www.w3.org/1999/xlink" viewBox="0 0 128 128" enable-background="new 0 0 128 128">
    <path d="M117.891,22.69h-8.222l1.966-11.174c0.28-1.599-0.162-3.263-1.209-4.503c-1.051-1.257-2.606-1.98-4.235-1.98H24.948
	c-1.599,0-3.123,0.692-4.17,1.901c-1.051,1.2-1.524,2.799-1.31,4.389l1.555,11.367h-9.032c-3.057,0-5.532,2.475-5.532,5.532
	c0,3.058,2.475,5.532,5.532,5.532h10.254l10.482,82.916c0.346,2.768,2.702,4.84,5.488,4.84h53.127c2.79,0,5.147-2.072,5.493-4.84
	l10.478-82.916h10.578c3.057,0,5.532-2.475,5.532-5.532C123.423,25.165,120.948,22.69,117.891,22.69z M99.6,16.098l-1.157,6.57
	H32.189l-0.898-6.57H99.6z M86.472,110.447H43.091l-9.663-76.456H96.13L86.472,110.447z"/>
</svg>
