<?xml version="1.0" encoding="utf-8"?>
<svg xmlns="http://www.w3.org/2000/svg" x="0px" y="0px" xmlns:xlink="http://www.w3.org/1999/xlink" viewBox="0 0 128 128" enable-background="new 0 0 128 128">
    <g class="person-body">
        <g>
            <path d="M63.609,126.527c-0.592,0-1.166-0.112-1.74-0.334L15.802,107.98c-1.794-0.705-2.995-2.463-2.995-4.405
			c0-28.219,22.969-51.171,51.208-51.171c28.221,0,51.19,22.952,51.19,51.171c0,1.961-1.183,3.719-3.014,4.42l-46.864,18.199
			C64.772,126.415,64.201,126.527,63.609,126.527z M22.405,100.415l41.223,16.291l41.998-16.321
			c-1.646-21.517-19.678-38.512-41.611-38.512C42.062,61.873,24.032,78.888,22.405,100.415z"/>
        </g>
    </g>
    <g class="person-book">
        <g>
            <path d="M63.609,126.527c0,0-0.019,0-0.038,0c-2.257-0.019-4.198-1.646-4.605-3.876L47.518,60.966
			c-0.48-2.568,1.222-5.05,3.792-5.518c2.571-0.491,5.03,1.218,5.51,3.79l6.991,37.661l7.527-37.302
			c0.519-2.56,2.997-4.255,5.585-3.7c2.571,0.521,4.217,3.018,3.7,5.578l-12.374,61.25
			C67.807,124.938,65.865,126.527,63.609,126.527z"/>
        </g>
    </g>
    <g class="person-head">
        <g>
            <path d="M64.015,61.558c-16.681,0-30.275-13.573-30.275-30.273c0-16.681,13.594-30.258,30.275-30.258s30.256,13.577,30.256,30.258
			C94.272,47.985,80.696,61.558,64.015,61.558z M64.015,10.496c-11.467,0-20.806,9.334-20.806,20.789
			c0,11.474,9.339,20.805,20.806,20.805c11.465,0,20.788-9.33,20.788-20.805C84.803,19.83,75.48,10.496,64.015,10.496z"/>
        </g>
    </g>
</svg>
