<?xml version="1.0" encoding="utf-8"?>
<svg xmlns="http://www.w3.org/2000/svg" x="0px" y="0px" xmlns:xlink="http://www.w3.org/1999/xlink" viewBox="0 0 128 128" enable-background="new 0 0 128 128">
    <g class="anchor-T-right">
        <path d="M68.362,56.53h19.655v2.522c0,2.557,2.079,4.642,4.646,4.642c2.569,0,4.644-2.085,4.644-4.642V43.957
		c0-2.558-2.075-4.644-4.644-4.644c-2.566,0-4.646,2.086-4.646,4.644v3.284H68.362"/>
    </g>
    <g class="anchor-T-left">
        <path d="M59.19,47.242H39.732v-3.284c0-2.558-2.079-4.644-4.646-4.644c-2.567,0-4.644,2.086-4.644,4.644v15.095
		c0,2.557,2.077,4.642,4.644,4.642c2.567,0,4.646-2.085,4.646-4.642V56.53H59.19"/>
    </g>
    <g class="boat-anchor">
        <path d="M59.133,56.572v61.101c-20.032-2.068-36.081-19.667-42.99-28.58l7.593-0.009c2.563,0,4.638-2.079,4.638-4.648
		c0-2.558-2.081-4.642-4.642-4.642c0,0,0,0-0.006,0L6.128,79.814c-2.561,0-4.64,2.075-4.64,4.642v18.431
		c0,2.557,2.079,4.646,4.648,4.646c2.567,0,4.642-2.088,4.642-4.646V97.32c9.21,11.283,28.031,29.917,52.167,29.917
		c24.444,0,44.296-19.153,53.828-30.343v5.994c0,2.557,2.075,4.646,4.644,4.646c2.567,0,4.646-2.088,4.646-4.646V84.456
		c0-2.566-2.079-4.642-4.64-4.642l-17.6-0.021c-0.004,0-0.004,0-0.004,0c-2.561,0-4.642,2.084-4.642,4.642
		c0,2.568,2.075,4.648,4.638,4.648l7.352,0.009c-7.179,8.752-23.307,25.642-42.747,28.437V56.572 M68.419,56.572V30.194
		c6.094-1.977,10.549-7.637,10.549-14.388c0-8.379-6.816-15.202-15.193-15.202c-8.377,0-15.193,6.823-15.193,15.202
		c0,6.751,4.455,12.411,10.551,14.388v26.378 M63.775,9.894c3.255,0,5.903,2.648,5.903,5.912c0,3.249-2.648,5.898-5.903,5.898
		c-3.259,0-5.907-2.649-5.907-5.898C57.868,12.542,60.517,9.894,63.775,9.894z"/>
    </g>
</svg>
