<?xml version="1.0" encoding="utf-8"?>
<!-- Generator: Adobe Illustrator 18.0.0, SVG Export Plug-In . SVG Version: 6.00 Build 0)  -->
<!DOCTYPE svg PUBLIC "-//W3C//DTD SVG 1.1//EN" "http://www.w3.org/Graphics/SVG/1.1/DTD/svg11.dtd">
<svg version="1.1" xmlns="http://www.w3.org/2000/svg" xmlns:xlink="http://www.w3.org/1999/xlink" x="0px" y="0px"
	 viewBox="-14 -14 128 128" enable-background="new -14 -14 128 128" xml:space="preserve">
<g id="arrow-left-tail">
	<path d="M55.121-6.658v32.487h54.614c2.146,0,3.89,1.777,3.89,3.967v42.403c0,2.197-1.743,3.971-3.89,3.971H55.122v32.483"/>
</g>
<g id="arrow-left-head">
	<path d="M55.822,107.653c0,1.571-0.904,2.997-2.311,3.63c-1.403,0.635-3.042,0.371-4.18-0.682l-62.429-57.653
		c-0.815-0.756-1.278-1.825-1.278-2.946c0-1.121,0.463-2.191,1.278-2.945l62.424-57.653c1.137-1.053,2.776-1.323,4.178-0.686
		c1.404,0.639,2.315,2.059,2.315,3.625"/>
</g>
<g id="arrow-left-fill">
	<path fill="#FFFFFF" d="M47.045,1.286l-52.74,48.715L47.05,98.715V71.199c0-2.187,1.74-3.964,3.888-3.964h54.609V32.764H50.931
		c-2.145,0-3.885-1.774-3.885-3.968V1.286z"/>
</g>
</svg>
