<?xml version="1.0" encoding="utf-8"?>
<!-- Generator: Adobe Illustrator 18.0.0, SVG Export Plug-In . SVG Version: 6.00 Build 0)  -->
<!DOCTYPE svg PUBLIC "-//W3C//DTD SVG 1.1//EN" "http://www.w3.org/Graphics/SVG/1.1/DTD/svg11.dtd">
<svg version="1.1" xmlns="http://www.w3.org/2000/svg" xmlns:xlink="http://www.w3.org/1999/xlink" x="0px" y="0px"
	 viewBox="0 0 128 128" style="enable-background:new 0 0 128 128;" xml:space="preserve">
<g id="Layer_1">
	<path d="M23.031,24.028c-2.527,0-4.648,1.932-4.877,4.456l-8.435,93.399c-0.136,1.368,0.326,2.725,1.26,3.741
		c0.919,1.011,2.241,1.597,3.617,1.597h97.348c0.077-0.012,0.132-0.012,0.202,0c2.706,0,4.896-2.194,4.896-4.9
		c0-0.628-0.124-1.233-0.337-1.787l-8.3-92.05c-0.229-2.524-2.353-4.456-4.877-4.456 M79.791,24.028H46.744 M19.949,117.43
		l7.555-83.609h71.549l7.532,83.609H19.949z"/>
</g>
<g id="Layer_2">
	<path d="M89.694,24.028C87.98,10.966,76.889,0.81,63.368,0.81c-13.533,0-24.616,10.157-26.325,23.218"/>
	<path style="fill:#FFFFFF;" d="M46.842,24.028c1.597-7.65,8.396-13.426,16.526-13.426c8.129,0,14.928,5.776,16.522,13.426"/>
</g>
</svg>
