<?xml version="1.0" encoding="utf-8"?>
<svg xmlns="http://www.w3.org/2000/svg" x="0px" y="0px" xmlns:xlink="http://www.w3.org/1999/xlink" viewBox="0 0 128 128" enable-background="new 0 0 128 128">
    <g class="Layer_2">
        <path d="M86.491,13.785c-2.525-1.066-5.477,0.107-6.559,2.659c-1.078,2.54,0.115,5.485,2.667,6.559
		c18.123,7.665,29.845,25.339,29.857,45.028c0,26.952-21.927,48.872-48.88,48.872c-26.944,0-48.872-21.92-48.872-48.872
		C14.697,48.537,26.261,30.921,44.17,23.17c2.54-1.094,3.705-4.046,2.611-6.579c-1.105-2.544-4.05-3.705-6.582-2.611
		C18.616,23.324,4.683,44.538,4.694,68.031c0,32.465,26.413,58.882,58.882,58.882c32.473,0,58.89-26.418,58.89-58.882
		C122.455,44.304,108.339,23.011,86.491,13.785z"/>
    </g>
    <g class="Layer_3">
        <path d="M63.577,48.695c2.766,0,5.005-2.239,5.005-5.005V6.434c0-2.766-2.239-5.005-5.005-5.005c-2.77,0-5.005,2.239-5.005,5.005
		V43.69C58.571,46.456,60.807,48.695,63.577,48.695z"/>
    </g>
</svg>
