<?xml version="1.0" encoding="utf-8"?>
<!-- Generator: Adobe Illustrator 18.0.0, SVG Export Plug-In . SVG Version: 6.00 Build 0)  -->
<!DOCTYPE svg PUBLIC "-//W3C//DTD SVG 1.1//EN" "http://www.w3.org/Graphics/SVG/1.1/DTD/svg11.dtd">
<svg version="1.1" xmlns="http://www.w3.org/2000/svg" xmlns:xlink="http://www.w3.org/1999/xlink" x="0px" y="0px"
	 viewBox="0 0 128 128" style="enable-background:new 0 0 128 128;" xml:space="preserve">
<g id="partly-cloudy-sun">
	<path d="M113.504,70.239l1.576,0.918c0.605,0.345,1.261,0.509,1.919,0.509c1.314,0,2.595-0.684,3.304-1.912
		c1.056-1.833,0.416-4.169-1.403-5.225l-1.866-1.074c0.83-2.275,1.332-4.681,1.557-7.18h5.19c2.112,0,3.824-1.714,3.824-3.825
		c0-2.11-1.712-3.822-3.824-3.822h-5.452c-0.431-2.354-1.141-4.587-2.11-6.697l2.682-1.549c1.819-1.054,2.459-3.391,1.403-5.216
		c-1.054-1.835-3.371-2.466-5.224-1.41l-3.012,1.739c-1.47-1.732-3.08-3.297-4.898-4.647l1.868-3.244
		c1.057-1.826,0.417-4.161-1.401-5.225c-1.834-1.038-4.168-0.416-5.224,1.41l-1.954,3.384c-1.992-0.762-4.122-1.256-6.283-1.558
		v-6.704c0-2.111-1.728-3.824-3.842-3.824c-2.091,0-3.807,1.714-3.807,3.824v6.704c-2.197,0.302-4.307,0.787-6.315,1.558
		l-1.954-3.384c-1.056-1.843-3.409-2.448-5.227-1.403c-1.833,1.065-2.457,3.393-1.401,5.227l1.886,3.235
		c-1.817,1.341-3.425,2.89-4.863,4.603l-3.096-1.79c-1.799-1.056-4.155-0.441-5.227,1.392c-1.052,1.819-0.431,4.16,1.403,5.218
		l2.768,1.61"/>
	<path d="M67.981,35.137l-1.576-0.918c-0.605-0.345-1.261-0.509-1.919-0.509c-1.314,0-2.595,0.684-3.304,1.912
		c-1.056,1.833-0.416,4.169,1.403,5.225l1.866,1.074c-0.83,2.275-1.332,4.681-1.557,7.18h-5.19c-2.112,0-3.824,1.714-3.824,3.825
		c0,2.11,1.712,3.822,3.824,3.822h5.452c0.431,2.354,1.141,4.587,2.11,6.697l-2.682,1.549c-1.819,1.054-2.459,3.391-1.403,5.216
		c1.054,1.835,3.371,2.466,5.224,1.41l3.012-1.739c1.47,1.732,3.08,3.297,4.898,4.647l-1.868,3.244
		c-1.057,1.826-0.417,4.161,1.401,5.225c1.834,1.038,4.168,0.416,5.224-1.41l1.954-3.384c1.992,0.762,4.122,1.256,6.283,1.558v6.704
		c0,2.111,1.728,3.825,3.842,3.825c2.091,0,3.807-1.714,3.807-3.825v-6.704c2.197-0.302,4.307-0.787,6.315-1.558l1.954,3.384
		c1.056,1.843,3.409,2.448,5.227,1.403c1.833-1.065,2.457-3.393,1.401-5.227l-1.886-3.235c1.817-1.341,3.425-2.89,4.863-4.603
		l3.096,1.79c1.799,1.056,4.155,0.441,5.227-1.392c1.052-1.819,0.431-4.16-1.403-5.218l-2.768-1.61"/>
</g>
<g id="partly-cloudy-sun-fill">
	<ellipse style="fill:#FFFFFF;" cx="90.777" cy="52.893" rx="21.339" ry="21.37"/>
</g>
<g id="partly-cloudy-cloud">
	<path d="M96.788,65.17c-0.876,0-1.761,0.057-2.68,0.177c-5.214-13.023-17.972-21.862-32.094-21.862
		c-12.378,0-23.85,6.744-30.023,17.414C15.204,57.173,0.394,70.365,0.394,86.615c0,14.512,11.802,26.321,26.31,26.321h70.083
		c13.161,0,23.871-10.714,23.871-23.883C120.659,75.884,109.948,65.17,96.788,65.17z"/>
</g>
<g id="partly-cloudy-cloud-fill">
	<path style="fill:#FFFFFF;" d="M96.788,105.677H26.705c-10.505,0-19.052-8.551-19.052-19.062c0-10.508,8.547-19.056,19.052-19.056
		c1.891,0,3.847,0.351,5.985,1.071c1.75,0.588,3.671-0.231,4.452-1.91c4.507-9.708,14.27-15.975,24.873-15.975
		c11.115,0,20.77,6.611,25.041,16.706c-2.714,1.292-6.355,3.563-9.206,7.427c-1.191,1.613-0.846,3.884,0.767,5.076
		c0.648,0.478,1.403,0.707,2.149,0.707c1.114,0,2.213-0.509,2.924-1.474c3.441-4.665,8.838-6.134,8.924-6.156
		c1.601-0.412,2.927-0.603,4.175-0.603c9.16,0,16.613,7.457,16.613,16.625S105.947,105.677,96.788,105.677z"/>
</g>
</svg>
