<?xml version="1.0" encoding="utf-8"?>
<!-- Generator: Adobe Illustrator 18.0.0, SVG Export Plug-In . SVG Version: 6.00 Build 0)  -->
<!DOCTYPE svg PUBLIC "-//W3C//DTD SVG 1.1//EN" "http://www.w3.org/Graphics/SVG/1.1/DTD/svg11.dtd">
<svg version="1.1" xmlns="http://www.w3.org/2000/svg" xmlns:xlink="http://www.w3.org/1999/xlink" x="0px" y="0px"
	 viewBox="0 0 128 128" enable-background="new 0 0 128 128" xml:space="preserve">
<g id="circle-plus">
	<path d="M123.921,64.584h-12.893V51.693c0-2.186-1.768-3.952-3.954-3.952c-2.185,0-3.951,1.766-3.951,3.952v12.891H90.223
		c-2.184,0-3.954,1.77-3.954,3.954c0,2.186,1.77,3.952,3.954,3.952h12.901v12.896c0,2.186,1.766,3.955,3.951,3.955
		c2.186,0,3.954-1.77,3.954-3.955V72.49h12.893c2.184,0,3.954-1.766,3.954-3.952C127.874,66.353,126.105,64.584,123.921,64.584z"/>
</g>
<g id="circle-arrow">
	<path d="M90.985,102.785c-9.139,9.144-21.299,14.18-34.23,14.18c0,0,0,0-0.008,0c-12.93,0-25.089-5.042-34.237-14.184
		c-18.884-18.884-18.884-49.605,0-68.481c9.148-9.148,21.307-14.187,34.245-14.187c10.347,0,20.158,3.267,28.366,9.226
		l-14.352,3.119c-2.131,0.464-3.484,2.571-3.021,4.701c0.402,1.853,2.039,3.118,3.855,3.118c0.286,0,0.563-0.028,0.849-0.091
		l22.186-4.819c0.117-0.028,0.202-0.101,0.311-0.136c0.246-0.072,0.462-0.181,0.693-0.306c0.238-0.129,0.463-0.268,0.671-0.444
		c0.087-0.071,0.194-0.106,0.281-0.185c0.092-0.098,0.13-0.223,0.213-0.325c0.172-0.211,0.319-0.425,0.44-0.663
		c0.117-0.227,0.216-0.448,0.286-0.688c0.07-0.235,0.109-0.465,0.139-0.709c0.025-0.275,0.033-0.535,0-0.81
		c-0.014-0.125,0.025-0.241,0-0.369l-4.77-24.088c-0.423-2.147-2.532-3.555-4.639-3.109c-2.147,0.421-3.536,2.502-3.111,4.645
		l2.639,13.341c-9.125-6.053-19.826-9.311-31.035-9.311c-15.053,0-29.197,5.864-39.836,16.5c-21.962,21.957-21.962,57.691,0,79.659
		c10.638,10.64,24.79,16.499,39.828,16.502c0.008,0,0.008,0,0.008,0c15.039,0,29.183-5.861,39.82-16.498
		c1.545-1.544,1.545-4.046,0-5.589C95.032,101.239,92.531,101.239,90.985,102.785z"/>
</g>
</svg>
