<?xml version="1.0" encoding="utf-8"?>
<!-- Generator: Adobe Illustrator 18.0.0, SVG Export Plug-In . SVG Version: 6.00 Build 0)  -->
<!DOCTYPE svg PUBLIC "-//W3C//DTD SVG 1.1//EN" "http://www.w3.org/Graphics/SVG/1.1/DTD/svg11.dtd">
<svg version="1.1" xmlns="http://www.w3.org/2000/svg" xmlns:xlink="http://www.w3.org/1999/xlink" x="0px" y="0px"
	 viewBox="0 0 128 128" enable-background="new 0 0 128 128" xml:space="preserve">
<g id="circle-plus">
	<path d="M123.007,64.299h-12.74V51.561c0-2.16-1.747-3.905-3.907-3.905c-2.159,0-3.904,1.745-3.904,3.905v12.738H89.709
		c-2.158,0-3.907,1.749-3.907,3.907c0,2.16,1.749,3.906,3.907,3.906h12.748v12.743c0,2.16,1.745,3.908,3.904,3.908
		c2.16,0,3.907-1.749,3.907-3.908V72.112h12.74c2.158,0,3.907-1.745,3.907-3.906C126.914,66.048,125.165,64.299,123.007,64.299z"/>
</g>
<g id="circle-arrow">
	<path d="M90.463,102.047c-9.031,9.035-21.046,14.012-33.823,14.012c0,0,0,0-0.008,0c-12.777,0-24.791-4.982-33.831-14.015
		c-18.66-18.66-18.66-49.016,0-67.668c9.04-9.04,21.054-14.018,33.839-14.018c10.224,0,19.919,3.228,28.029,9.116l-14.182,3.082
		c-2.106,0.459-3.442,2.541-2.985,4.645c0.398,1.831,2.015,3.081,3.809,3.081c0.282,0,0.557-0.028,0.839-0.09l21.923-4.762
		c0.115-0.028,0.2-0.1,0.307-0.134c0.243-0.072,0.457-0.179,0.685-0.302c0.235-0.128,0.457-0.265,0.663-0.438
		c0.086-0.07,0.192-0.104,0.278-0.182c0.091-0.097,0.128-0.22,0.211-0.321c0.17-0.209,0.315-0.42,0.435-0.655
		c0.115-0.225,0.214-0.443,0.282-0.68c0.069-0.232,0.108-0.46,0.137-0.7c0.025-0.272,0.033-0.529,0-0.8
		c-0.014-0.123,0.025-0.239,0-0.365L92.356,7.047c-0.418-2.121-2.502-3.512-4.584-3.073c-2.121,0.416-3.494,2.472-3.074,4.59
		l2.608,13.182c-9.017-5.981-19.591-9.2-30.666-9.2c-14.875,0-28.851,5.794-39.363,16.305c-21.702,21.697-21.702,57.006,0,78.714
		c10.512,10.514,24.496,16.303,39.355,16.307c0.008,0,0.008,0,0.008,0c14.861,0,28.837-5.791,39.348-16.302
		c1.527-1.525,1.527-3.998,0-5.523C94.461,100.52,91.989,100.52,90.463,102.047z"/>
</g>
</svg>
