<?xml version="1.0" encoding="utf-8"?>
<!-- Generator: Adobe Illustrator 18.0.0, SVG Export Plug-In . SVG Version: 6.00 Build 0)  -->
<!DOCTYPE svg PUBLIC "-//W3C//DTD SVG 1.1//EN" "http://www.w3.org/Graphics/SVG/1.1/DTD/svg11.dtd">
<svg version="1.1" xmlns="http://www.w3.org/2000/svg" xmlns:xlink="http://www.w3.org/1999/xlink" x="0px" y="0px"
	 viewBox="0 0 128 128" style="enable-background:new 0 0 128 128;" xml:space="preserve">
<g id="circle-minus-minus">
	<path d="M42.183,66.321c0-2.158-1.746-3.906-3.906-3.906H4.99c-2.158,0-3.904,1.748-3.904,3.906c0,2.16,1.746,3.904,3.904,3.904
		h33.287C40.437,70.226,42.183,68.481,42.183,66.321z"/>
</g>
<g id="circle-minus-circle">
	<path d="M110.687,26.978c-10.509-10.507-24.479-16.3-39.35-16.3c-11.066,0-21.635,3.218-30.657,9.197l2.609-13.178
		c0.418-2.117-0.954-4.173-3.075-4.589c-2.072-0.432-4.163,0.954-4.582,3.072L30.92,28.975c-0.023,0.126,0.014,0.242,0,0.365
		c-0.031,0.271-0.023,0.528,0,0.8c0.03,0.24,0.069,0.468,0.137,0.7c0.068,0.237,0.167,0.455,0.282,0.68
		c0.122,0.235,0.267,0.446,0.434,0.655c0.084,0.101,0.122,0.224,0.214,0.321c0.084,0.078,0.19,0.112,0.276,0.182
		c0.204,0.173,0.426,0.31,0.663,0.438c0.228,0.123,0.441,0.231,0.686,0.302c0.106,0.034,0.19,0.106,0.306,0.134l21.917,4.76
		c0.282,0.062,0.555,0.09,0.837,0.09c1.793,0,3.41-1.249,3.806-3.08c0.459-2.103-0.878-4.185-2.982-4.643l-14.176-3.078
		c8.106-5.889,17.8-9.116,28.019-9.116c12.781,0,24.791,4.977,33.83,14.014c18.651,18.647,18.651,48.993,0,67.648
		c-9.039,9.031-21.049,14.011-33.822,14.011c-12.783,0-24.793-4.975-33.822-14.008c-1.525-1.526-3.996-1.526-5.521,0
		c-1.525,1.525-1.525,3.996,0,5.521c10.509,10.507,24.479,16.297,39.343,16.297c14.856-0.003,28.833-5.791,39.342-16.302
		C132.383,83.967,132.383,48.668,110.687,26.978z"/>
</g>
</svg>
