<?xml version="1.0" encoding="utf-8"?>
<!-- Generator: Adobe Illustrator 18.0.0, SVG Export Plug-In . SVG Version: 6.00 Build 0)  -->
<!DOCTYPE svg PUBLIC "-//W3C//DTD SVG 1.1//EN" "http://www.w3.org/Graphics/SVG/1.1/DTD/svg11.dtd">
<svg version="1.1" xmlns="http://www.w3.org/2000/svg" xmlns:xlink="http://www.w3.org/1999/xlink" x="0px" y="0px"
	 viewBox="0 0 128 128" style="enable-background:new 0 0 128 128;" xml:space="preserve">
<g id="battery-fill">
	<path d="M122.244,43.18h-4.865V31.137c0-2.726-2.223-4.939-4.947-4.939H5.853c-2.726,0-4.947,2.213-4.947,4.939v63.502
		c0,2.726,2.221,4.958,4.947,4.958h106.579c2.724,0,4.947-2.232,4.947-4.958V82.597h4.865c2.724,0,4.948-2.213,4.948-4.939V48.14
		C127.191,45.414,124.968,43.18,122.244,43.18z"/>
</g>
<g id="battery-plug">
	<path style="fill:#FFFFFF;" d="M90.637,69.642c2.05,0,3.703,1.675,3.703,3.714c0,2.039-1.654,3.692-3.703,3.692H75.46v8.737
		c-13.044,0-23.778-7.856-25.893-18.184H36.449c-2.05,0-3.703-1.673-3.703-3.714c0-2.039,1.653-3.692,3.703-3.692h13.117
		c2.115-10.326,12.86-18.182,25.893-18.182v8.716h15.177c2.05,0,3.703,1.673,3.703,3.714c0,2.039-1.654,3.692-3.703,3.692H75.46
		v11.507H90.637z"/>
</g>
</svg>
