<?xml version="1.0" encoding="utf-8"?>
<svg xmlns="http://www.w3.org/2000/svg" x="0px" y="0px" xmlns:xlink="http://www.w3.org/1999/xlink" viewBox="0 0 128 128" enable-background="new 0 0 128 128">
    <g class="cloud-rainy-outline">
        <path d="M101.951,43.143c-0.903,0-1.828,0.063-2.787,0.186c-5.49-13.849-18.624-22.928-33.679-22.928
		c-12.993,0-25.018,7.072-31.48,18.268C16.27,34.687,0.856,48.595,0.856,65.632c0,15.221,12.375,27.605,27.591,27.605h9.081
		l2.003-7.611H28.447c-11.016,0-19.98-8.969-19.98-19.994c0-11.02,8.964-19.984,19.98-19.984c1.982,0,4.043,0.368,6.301,1.123
		c1.851,0.609,3.848-0.249,4.66-2.008c4.718-10.177,14.949-16.752,26.076-16.752c12.814,0,23.868,8.341,27.506,20.758
		c0.581,1.971,2.617,3.152,4.61,2.612c1.658-0.427,3.041-0.626,4.351-0.626c9.61,0,17.425,7.818,17.425,17.434
		c0,9.616-7.815,17.436-17.425,17.436H89.605l-2.003,7.611h14.349c13.805,0,25.038-11.236,25.038-25.047
		S115.755,43.143,101.951,43.143z"/>
    </g>
    <g class="cloud-rainy-rain3">
        <path d="M81.301,76.791c-0.296-0.079-0.596-0.119-0.875-0.119c-1.503,0-2.9,1.026-3.316,2.561l-1.679,6.392l-2,7.611l-0.737,2.804
		c-0.476,1.831,0.609,3.704,2.438,4.184c0.299,0.077,0.579,0.115,0.878,0.115c1.517,0,2.9-1.018,3.316-2.558l1.192-4.546
		l1.999-7.611l1.223-4.654C84.214,79.144,83.129,77.27,81.301,76.791z"/>
    </g>
    <g class="cloud-rainy-rain2">
        <path d="M68.946,68.476c-0.296-0.081-0.594-0.119-0.891-0.119c-1.534,0-2.885,1.034-3.288,2.561l-3.863,14.707L58.9,93.237
		l-2.487,9.46c-0.476,1.83,0.608,3.702,2.438,4.182c0.299,0.077,0.596,0.114,0.879,0.114c1.517,0,2.897-1.018,3.313-2.556
		l2.945-11.199l2.002-7.611l3.41-12.967C71.876,70.829,70.776,68.956,68.946,68.476z"/>
    </g>
    <g class="cloud-rainy-rain1">
        <path d="M52.476,76.791c-0.284-0.079-0.582-0.119-0.878-0.119c-1.502,0-2.9,1.026-3.301,2.561l-1.684,6.392l-2.006,7.611
		l-0.739,2.804c-0.479,1.831,0.622,3.704,2.451,4.184c0.283,0.077,0.579,0.115,0.862,0.115c1.532,0,2.915-1.018,3.316-2.558
		l1.196-4.546l2.008-7.611l1.225-4.654C55.401,79.144,54.301,77.27,52.476,76.791z"/>
    </g>
</svg>
