<?xml version="1.0" encoding="utf-8"?>
<svg xmlns="http://www.w3.org/2000/svg" x="0px" y="0px" xmlns:xlink="http://www.w3.org/1999/xlink" viewBox="-77 51 128 128" enable-background="new -77 51 128 128">
    <g class="ham-sm-bottom">
        <g>
            <path d="M7.691,126.476h-40.086c-0.829,0-1.5-0.671-1.5-1.5c0-0.829,0.671-1.5,1.5-1.5H7.691c0.829,0,1.5,0.671,1.5,1.5
			C9.191,125.805,8.52,126.476,7.691,126.476z"/>
        </g>
    </g>
    <g class="ham-sm-middle">
        <g>
            <path d="M7.691,118.476h-40.086c-0.829,0-1.5-0.671-1.5-1.5c0-0.829,0.671-1.5,1.5-1.5H7.691c0.829,0,1.5,0.671,1.5,1.5
			C9.191,117.805,8.52,118.476,7.691,118.476z"/>
        </g>
    </g>
    <g class="ham-sm-top">
        <g>
            <path d="M7.691,110.476h-40.086c-0.829,0-1.5-0.671-1.5-1.5c0-0.829,0.671-1.5,1.5-1.5H7.691c0.829,0,1.5,0.671,1.5,1.5
			C9.191,109.805,8.52,110.476,7.691,110.476z"/>
        </g>
    </g>
</svg>
