<?xml version="1.0" encoding="utf-8"?>
<svg xmlns="http://www.w3.org/2000/svg" x="0px" y="0px" xmlns:xlink="http://www.w3.org/1999/xlink" viewBox="0 0 128 128" enable-background="new 0 0 128 128">
    <g class="map-outline">
        <path d="M123.731,18.075L84.916,6.203c-0.93-0.287-1.931-0.287-2.868,0L44.865,17.579L7.644,3.116
		C6.135,2.534,4.44,2.723,3.111,3.638C1.775,4.55,0.977,6.058,0.977,7.674v109.037c0,1.44,0.633,2.806,1.735,3.737
		c1.11,0.92,2.556,1.322,3.97,1.088l37.792-6.387l37.824,9.513c0.391,0.1,0.797,0.148,1.196,0.148s0.805-0.049,1.196-0.148
		l38.808-9.761c2.165-0.545,3.697-2.504,3.697-4.745V22.753C127.194,20.604,125.787,18.701,123.731,18.075z"/>
    </g>
    <g class="map-panel-left">
        <path d="M10.176,65.774V15.5l29.634,10.337l0.274,81.663l-29.907,5.761V65.774" fill="#FFFFFF"/>
    </g>
    <g class="map-panel-right">
        <polyline points="87.508,17.101 117.142,26.17 117.142,106.141 87.508,113.594 	" fill="#FFFFFF"/>
    </g>
    <g class="map-panel-middle">
        <path d="M78.916,66.774v47.486l-29.907-6.594l0.274-80.83l29.634-9.069V66.774" fill="#FFFFFF"/>
    </g>
    <g class="map-dash8">
        <path d="M79.25,68.649c-0.344,0.061-0.703,0.016-1.008,0.23c-2.383,1.686-4.446,2.54-6.135,2.54c-0.899,0-3.649,0-6.033-6.068
		c-0.485-1.26-1.93-1.877-3.165-1.383c-1.258,0.492-1.876,1.915-1.383,3.171c2.977,7.584,7.393,9.175,10.581,9.175
		c2.227,0,4.611-0.942,7.143-2.438"/>
    </g>
    <g class="map-dash5">
        <path d="M9.442,97.463c1.868-0.625,3.993-1.831,5.994-4.39c0.844-1.061,0.657-2.6-0.406-3.437
		c-1.063-0.826-2.595-0.654-3.431,0.416c-0.727,0.926-1.462,1.577-2.157,2.04"/>
    </g>
    <g class="map-dash7">
        <path d="M49.056,36.981c0.469,0.424,1.063,0.635,1.649,0.635c0.664,0,1.328-0.273,1.813-0.803c0.907-0.999,0.829-2.548-0.172-3.454
		c-1.024-0.932-2.196-1.495-3.337-2.129"/>
    </g>
    <g class="map-dash6">
        <path d="M87.297,66.55c3.642-3.593,7.346-2.981,10.605,1.518c0.789,1.096,2.321,1.328,3.407,0.551
		c1.102-0.795,1.344-2.321,0.547-3.417c-4.04-5.599-9.558-7.229-14.559-4.677"/>
    </g>
    <g class="map-dash9">
        <path d="M39.809,29.044c-2.954,0.336-5.884,1.219-8.55,3.149c-1.102,0.787-1.336,2.321-0.555,3.415
		c0.805,1.084,2.329,1.342,3.423,0.549c1.805-1.303,3.743-1.938,5.682-2.258"/>
    </g>
    <g class="map-dash1">
        <path d="M20.952,62.782c-0.008,0-0.023,0-0.023,0c-1.344,0-2.431,1.074-2.454,2.417c-0.102,7.998-1,14.467-2.665,19.216
		c-0.446,1.276,0.219,2.671,1.492,3.12c0.266,0.096,0.547,0.139,0.813,0.139c1.008,0,1.946-0.631,2.305-1.635
		c1.852-5.256,2.844-12.244,2.946-20.782C23.39,63.909,22.312,62.801,20.952,62.782z"/>
    </g>
    <g class="map-dash2">
        <path d="M25.727,37.731c-3.79,5.209-6.213,12.177-6.971,20.166c-0.125,1.348,0.859,2.544,2.204,2.672
		c0.078,0.002,0.156,0.008,0.235,0.008c1.25,0,2.305-0.945,2.43-2.212c0.68-7.113,2.782-13.254,6.057-17.751
		c0.797-1.092,0.563-2.622-0.531-3.419C28.064,36.417,26.532,36.641,25.727,37.731z"/>
    </g>
    <g class="map-dash3">
        <path d="M61.112,62.442c1.329-0.274,2.173-1.567,1.899-2.89c-0.328-1.596-0.609-3.351-0.844-5.281
		c-0.727-5.822-2.227-10.845-4.462-14.92c-0.649-1.194-2.149-1.62-3.321-0.969c-1.18,0.649-1.61,2.135-0.961,3.319
		c1.93,3.536,3.243,7.963,3.892,13.172c0.25,2.073,0.555,3.962,0.907,5.672c0.25,1.155,1.258,1.95,2.391,1.95
		C60.784,62.494,60.956,62.479,61.112,62.442z"/>
    </g>
    <g class="map-dash4">
        <path d="M101.373,73.837c0.961,2.862,1.469,5.918,1.469,8.843c0,1.352,1.094,2.448,2.446,2.448c1.344,0,2.446-1.096,2.446-2.448
		c0-3.45-0.594-7.047-1.719-10.401c-0.43-1.28-1.766-1.983-3.102-1.538C101.631,71.171,100.944,72.556,101.373,73.837z"/>
    </g>
    <g class="map-x">
        <path d="M100.928,84.768c-1.078-0.836-2.594-0.645-3.439,0.426c-0.828,1.063-0.633,2.602,0.422,3.433l4.884,3.814l-5.056,4.812
		c-0.985,0.932-1.023,2.481-0.086,3.458c0.477,0.506,1.118,0.76,1.767,0.76c0.601,0,1.219-0.225,1.68-0.674l5.595-5.316l5.369,4.195
		c0.453,0.348,0.985,0.516,1.508,0.516c0.727,0,1.446-0.324,1.93-0.942c0.828-1.065,0.641-2.604-0.414-3.435l-4.814-3.751
		l4.587-4.356c0.985-0.932,1.024-2.482,0.086-3.46c-0.914-0.975-2.47-1.022-3.446-0.086l-5.111,4.863L100.928,84.768z"/>
    </g>
</svg>
