<?xml version="1.0" encoding="utf-8"?>
<svg xmlns="http://www.w3.org/2000/svg" x="0px" y="0px" xmlns:xlink="http://www.w3.org/1999/xlink" viewBox="0 0 128 128" enable-background="new 0 0 128 128">
    <g class="coffee-cup">
        <path d="M104.851,20.906c-0.455,0-1.261-0.276-1.684-0.156c-0.425-0.129-2.582-0.23-3.056-0.23L5.686,20.383
		c-2.636,0-4.771,2.121-4.778,4.767L0.888,38.303C0.852,65.412,22.874,87.497,49.979,87.535l5.647,0.009
		c27.101,0.036,49.188-21.986,49.225-49.091 M95.311,38.434C95.279,60.289,77.483,78.041,55.64,78.005l-5.645-0.009
		c-21.847-0.027-39.597-17.838-39.567-39.683l0.015-8.384l84.883,0.12L95.311,38.434z"/>
    </g>
    <g class="coffee-saucer">
        <path d="M91.05,96.75l-78.377-0.114c-2.636,0-4.775,2.125-4.777,4.773c0,2.626,2.127,4.767,4.763,4.767l78.377,0.114
		c2.638,0.009,4.775-2.125,4.775-4.761C95.815,98.89,93.688,96.759,91.05,96.75z"/>
    </g>
    <g class="coffee-handle">
        <path d="M104.851,30.34l-0.144,0l4.115,0.009c4.926,0.009,8.927,3.979,8.922,8.839l-0.004,1.733
		c-0.004,4.862-4.018,8.82-8.944,8.81c-2.669,0-4.832,2.126-4.836,4.771c-0.008,2.626,2.153,4.769,4.822,4.769
		c10.248,0.019,18.598-8.204,18.612-18.333l0.002-1.733c0.017-10.134-8.309-18.375-18.559-18.396l-4.681-0.007"/>
    </g>
</svg>
