<?xml version="1.0" encoding="utf-8"?>
<!-- Generator: Adobe Illustrator 18.0.0, SVG Export Plug-In . SVG Version: 6.00 Build 0)  -->
<!DOCTYPE svg PUBLIC "-//W3C//DTD SVG 1.1//EN" "http://www.w3.org/Graphics/SVG/1.1/DTD/svg11.dtd">
<svg version="1.1" xmlns="http://www.w3.org/2000/svg" xmlns:xlink="http://www.w3.org/1999/xlink" x="0px" y="0px"
	 viewBox="-14 -14 128 128" enable-background="new -14 -14 128 128" xml:space="preserve">
<g id="arrow-up-head">
	<path d="M-7.029,56.198c-1.571,0-2.997-0.904-3.63-2.311c-0.635-1.403-0.371-3.042,0.682-4.18l57.653-62.429
		C48.433-13.537,49.502-14,50.623-14s2.191,0.463,2.945,1.278l57.653,62.424c1.053,1.137,1.323,2.776,0.686,4.178
		c-0.639,1.404-2.059,2.315-3.625,2.315"/>
</g>
<g id="arrow-up-tail">
	<path d="M107.282,55.497H74.795v54.614c0,2.146-1.777,3.89-3.967,3.89H28.425c-2.197,0-3.971-1.743-3.971-3.89V55.498H-8.029"/>
</g>
<g id="arrow-up-fill">
	<path fill="#FFFFFF" d="M99.338,47.421L50.623-5.319L1.909,47.426h27.516c2.187,0,3.964,1.74,3.964,3.888v54.609H67.86V51.307
		c0-2.145,1.774-3.885,3.968-3.885H99.338z"/>
</g>
</svg>
