<?xml version="1.0" encoding="utf-8"?>
<!-- Generator: Adobe Illustrator 18.0.0, SVG Export Plug-In . SVG Version: 6.00 Build 0)  -->
<!DOCTYPE svg PUBLIC "-//W3C//DTD SVG 1.1//EN" "http://www.w3.org/Graphics/SVG/1.1/DTD/svg11.dtd">
<svg version="1.1" id="link" xmlns="http://www.w3.org/2000/svg" xmlns:xlink="http://www.w3.org/1999/xlink" x="0px" y="0px"
	 viewBox="0 0 128 128" enable-background="new 0 0 128 128" xml:space="preserve">
<path d="M125.127,29.221L98.066,2.162c-1.976-1.979-5.478-1.979-7.455,0l-35.38,35.38c-2.058,2.058-2.058,5.395,0,7.455l9.803,9.801
	L54.758,65.084l-9.801-9.792c-2.06-2.06-5.397-2.06-7.455,0L2.123,90.661c-2.06,2.06-2.06,5.395,0,7.455l27.059,27.06
	c1.031,1.029,2.379,1.544,3.728,1.544c1.35,0,2.698-0.515,3.728-1.544l35.39-35.369c0.989-0.989,1.545-2.327,1.545-3.728
	c0-1.4-0.555-2.74-1.545-3.727l-9.813-9.813l10.277-10.287l9.803,9.803c1.029,1.029,2.377,1.544,3.728,1.544
	c1.348,0,2.696-0.515,3.727-1.544l35.38-35.38c0.987-0.987,1.544-2.327,1.544-3.727C126.671,31.548,126.114,30.21,125.127,29.221z
	 M60.844,86.08l-27.935,27.914L13.305,94.389L41.23,66.474l6.073,6.065l-4.489,4.479c-2.058,2.06-2.058,5.395,0,7.455
	c1.031,1.029,2.389,1.544,3.727,1.544c1.359,0,2.699-0.515,3.728-1.544l4.489-4.479L60.844,86.08z M86.02,60.873l-6.075-6.075
	l4.447-4.437c2.06-2.06,2.06-5.395,0-7.455c-2.06-2.06-5.395-2.06-7.455,0l-4.448,4.437l-6.075-6.073l27.925-27.925l19.606,19.603
	L86.02,60.873z"/>
</svg>
