<?xml version="1.0" encoding="utf-8"?>
<!-- Generator: Adobe Illustrator 18.0.0, SVG Export Plug-In . SVG Version: 6.00 Build 0)  -->
<!DOCTYPE svg PUBLIC "-//W3C//DTD SVG 1.1//EN" "http://www.w3.org/Graphics/SVG/1.1/DTD/svg11.dtd">
<svg version="1.1" xmlns="http://www.w3.org/2000/svg" xmlns:xlink="http://www.w3.org/1999/xlink" x="0px" y="0px"
	 viewBox="0 0 128 128" enable-background="new 0 0 128 128" xml:space="preserve">
<g id="video">
	<path d="M125.139,40.629c-1.26-0.853-2.86-1.01-4.236-0.451L89.976,52.626V40.397c0-2.497-2.028-4.531-4.533-4.531H70.946V21.902
		c0-2.504-2.035-4.533-4.54-4.533H24.407c-2.505,0-4.54,2.029-4.54,4.533v13.964H5.385c-2.505,0-4.533,2.035-4.533,4.531v65.61
		c0,2.496,2.028,4.535,4.533,4.535h80.058c2.505,0,4.533-2.038,4.533-4.535V94.07l30.919,12.522c0.551,0.228,1.13,0.337,1.702,0.337
		c0.891,0,1.774-0.266,2.534-0.779c1.245-0.835,1.999-2.248,1.999-3.756V44.382C127.13,42.877,126.384,41.469,125.139,40.629z
		 M28.94,26.436h32.933v9.43H28.94V26.436z M80.91,101.474H9.918V44.932h14.489h41.999H80.91v14.405v28.005V101.474z
		 M118.064,95.665L89.976,84.298V62.401l28.088-11.309V95.665z"/>
</g>
<g id="video-handle" display="none">
	<path display="inline" d="M85.409,35.866H70.912V21.902c0-2.504-2.035-4.533-4.54-4.533H24.373c-2.505,0-4.54,2.029-4.54,4.533
		v13.964H5.351"/>
</g>
<g id="video-handle-fill" display="none">
	<rect x="28.914" y="26.436" display="inline" fill="#FFFFFF" width="32.933" height="9.43"/>
</g>
<g id="video-lens" display="none">
	<path display="inline" d="M89.976,94.089l31.325,12.686c0.558,0.231,1.145,0.341,1.724,0.341c0.902,0,1.797-0.27,2.568-0.789
		c1.262-0.846,2.025-2.278,2.025-3.806V43.748c0-1.524-0.756-2.951-2.017-3.802c-1.277-0.864-2.898-1.024-4.292-0.457L89.976,52.1"
		/>
	<polyline display="inline" fill="#FFFFFF" points="89.976,62.599 118.064,51.291 118.064,95.863 89.976,84.497 	"/>
</g>
</svg>
