<?xml version="1.0" encoding="utf-8"?>
<!-- Generator: Adobe Illustrator 18.0.0, SVG Export Plug-In . SVG Version: 6.00 Build 0)  -->
<!DOCTYPE svg PUBLIC "-//W3C//DTD SVG 1.1//EN" "http://www.w3.org/Graphics/SVG/1.1/DTD/svg11.dtd">
<svg version="1.1" xmlns="http://www.w3.org/2000/svg" xmlns:xlink="http://www.w3.org/1999/xlink" x="0px" y="0px"
	 viewBox="0 0 128 128" style="enable-background:new 0 0 128 128;" xml:space="preserve">
<g id="sliders-bar-right">
	<path d="M119.473,70.914V9.758c0-3.037-2.447-5.471-5.473-5.471c-3.024,0-5.471,2.434-5.471,5.471v61.156l0,0
		c0.025,2.17-0.037,4.021-0.037,7.045v21.5c0,3.013,0.062,6.25,0.037,8.759l0,0v10.027c0,3.032,2.447,5.468,5.471,5.468
		c3.026,0,5.473-2.436,5.473-5.468v-10.027"/>
</g>
<g id="sliders-bar-middle">
	<path d="M69.294,70.455V9.298c0-3.037-2.447-5.471-5.473-5.471c-3.024,0-5.471,2.434-5.471,5.471v61.156l0,0
		c0.025,2.17-0.037,4.021-0.037,7.045V99c0,3.013,0.062,6.25,0.037,8.759l0,0v10.027c0,3.032,2.447,5.468,5.471,5.468
		c3.026,0,5.473-2.436,5.473-5.468v-10.027"/>
</g>
<g id="sliders-bar-left">
	<path d="M19.183,70.455V9.298c0-3.037-2.447-5.471-5.473-5.471c-3.024,0-5.471,2.434-5.471,5.471v61.156l0,0
		c0.025,2.17-0.037,4.021-0.037,7.045V99c0,3.013,0.062,6.25,0.037,8.759l0,0v10.027c0,3.032,2.447,5.468,5.471,5.468
		c3.026,0,5.473-2.436,5.473-5.468v-10.027"/>
</g>
<g id="slibers-knob-right">
	<path d="M108.512,33.299h-1.892c-3.024,0-5.471,2.449-5.471,5.473v26.351c0,3.035,2.447,5.469,5.471,5.469h1.892l0,0
		c12.834,0,1.724-0.143,4.748-0.143c3.023,0-6.135,0.143,6.194,0.143l0,0h1.892c3.023,0,5.471-2.434,5.471-5.469V38.773
		c0-3.024-2.447-5.473-5.471-5.473h-1.892"/>
</g>
<g id="sliders-knob-middle">
	<path d="M58.332,66.133H56.44c-3.024,0-5.471,2.449-5.471,5.473v26.351c0,3.035,2.447,5.469,5.471,5.469h1.892l0,0
		c12.834,0,1.724-0.143,4.748-0.143c3.023,0-6.135,0.143,6.194,0.143l0,0h1.892c3.023,0,5.471-2.434,5.471-5.469V71.606
		c0-3.024-2.447-5.473-5.471-5.473h-1.892"/>
</g>
<g id="sliders-knob-left">
	<path d="M8.222,20.799H6.33c-3.024,0-5.471,2.449-5.471,5.473v26.351c0,3.035,2.447,5.469,5.471,5.469h1.892l0,0
		c12.834,0,1.724-0.143,4.748-0.143c3.023,0-6.135,0.143,6.194,0.143l0,0h1.892c3.023,0,5.471-2.434,5.471-5.469V26.273
		c0-3.024-2.447-5.473-5.471-5.473h-1.892"/>
</g>
</svg>
