<?xml version="1.0" encoding="utf-8"?>
<!-- Generator: Adobe Illustrator 18.0.0, SVG Export Plug-In . SVG Version: 6.00 Build 0)  -->
<!DOCTYPE svg PUBLIC "-//W3C//DTD SVG 1.1//EN" "http://www.w3.org/Graphics/SVG/1.1/DTD/svg11.dtd">
<svg version="1.1" id="pencil" xmlns="http://www.w3.org/2000/svg" xmlns:xlink="http://www.w3.org/1999/xlink" x="0px" y="0px"
	 viewBox="0 0 128 128" style="enable-background:new 0 0 128 128;" xml:space="preserve">
<path d="M124.994,41.311L85.89,2.214c-1.904-1.903-4.985-1.903-6.885,0L64.528,16.689L10.339,70.887l-0.019,0.009v0.019
	l-1.047,1.047c-0.742,0.733-1.218,1.683-1.369,2.72L1,120.655c-0.229,1.521,0.285,3.063,1.369,4.166
	c0.933,0.914,2.169,1.426,3.443,1.426c0.247,0,0.476-0.019,0.723-0.058l45.992-6.876c1.028-0.162,1.997-0.636,2.72-1.378
	l55.276-55.264l14.473-14.475C126.895,46.294,126.895,43.213,124.994,41.311z M52.869,106.551l-6.448-6.456l47.322-47.324
	l6.45,6.458L52.869,106.551z M13.686,101.749l2.681-17.918l27.01,27.01l-17.918,2.672L13.686,101.749z M86.857,45.885L39.535,93.209
	l-5.536-5.527l47.326-47.322l2.756,2.766L86.857,45.885z M67.971,27.017l6.469,6.457L27.113,80.797l-6.465-6.457L67.971,27.017z
	 M107.079,52.343l-9.893-9.891v-0.009h-0.019l-6.199-6.201l-16.112-16.11l7.591-7.589l32.219,32.211L107.079,52.343z"/>
</svg>
