<?xml version="1.0" encoding="utf-8"?>
<svg xmlns="http://www.w3.org/2000/svg" x="0px" y="0px" xmlns:xlink="http://www.w3.org/1999/xlink" viewBox="0 0 128 128" enable-background="new 0 0 128 128">
    <g class="printer">
        <path d="M122.43,18.682h-21.64v-9.66c0-2.561-2.064-4.614-4.614-4.614H31.719c-2.55,0-4.614,2.053-4.614,4.614v9.66H5.6
		c-2.55,0-4.614,2.075-4.614,4.614v52.293c0,2.557,2.064,4.614,4.614,4.614h21.585v37.555c0,2.55,2.064,4.614,4.614,4.614h51.011
		c1.253,0,2.442-0.504,3.317-1.407l13.429-13.869c0.829-0.859,1.297-2.002,1.297-3.208V80.203h21.578
		c2.55,0,4.614-2.057,4.614-4.614V23.296C127.044,20.757,124.98,18.682,122.43,18.682z M91.623,102.022l-10.769,11.121H36.413
		v-32.94h55.21V102.022z M117.815,70.974H96.238H31.799H10.214V27.911h21.504c2.55,0,4.614-2.053,4.614-4.614v-9.66h55.228v9.66
		c0,2.561,2.064,4.614,4.614,4.614h21.64V70.974z"/>
    </g>
    <g class="printer-line-bottom">
        <path d="M45.218,108.503h30.346c2.55,0,4.614-2.057,4.614-4.614c0-2.543-2.064-4.614-4.614-4.614H45.218
		c-2.55,0-4.614,2.072-4.614,4.614C40.604,106.447,42.668,108.503,45.218,108.503z"/>
    </g>
    <g class="printer-line-top_1_">
        <path d="M45.218,94.072h37.591c2.552,0,4.614-2.064,4.614-4.614c0-2.55-2.063-4.614-4.614-4.614H45.218
		c-2.55,0-4.614,2.064-4.614,4.614C40.604,92.008,42.668,94.072,45.218,94.072z"/>
    </g>
</svg>
