<?xml version="1.0" encoding="utf-8"?>
<!-- Generator: Adobe Illustrator 18.0.0, SVG Export Plug-In . SVG Version: 6.00 Build 0)  -->
<!DOCTYPE svg PUBLIC "-//W3C//DTD SVG 1.1//EN" "http://www.w3.org/Graphics/SVG/1.1/DTD/svg11.dtd">
<svg version="1.1" xmlns="http://www.w3.org/2000/svg" xmlns:xlink="http://www.w3.org/1999/xlink" x="0px" y="0px"
	 viewBox="0 0 128 128" style="enable-background:new 0 0 128 128;" xml:space="preserve">
<g id="phone-ear">
	<g>
		<path d="M71.335,11.784H55.752c-1.901,0-3.448,1.547-3.448,3.448s1.547,3.448,3.448,3.448h15.583c1.9,0,3.447-1.547,3.447-3.448
			S73.235,11.784,71.335,11.784z"/>
	</g>
</g>
<g id="phone-home">
	<g>
		<path d="M65.491,109.173c-2.975,0-5.396,2.421-5.396,5.396c0,2.976,2.42,5.396,5.396,5.396c2.975,0,5.396-2.421,5.396-5.396
			C70.887,111.594,68.466,109.173,65.491,109.173z"/>
	</g>
</g>
<g id="phone-outline">
	<g>
		<path d="M94.708,0.098H32.379c-4.049,0-7.343,3.294-7.343,7.343v112.971c0,4.05,3.294,7.344,7.343,7.344h62.329
			c4.05,0,7.344-3.294,7.344-7.344V7.441C102.052,3.392,98.758,0.098,94.708,0.098z M95.156,7.441v112.971
			c0,0.247-0.201,0.448-0.448,0.448H32.379c-0.247,0-0.448-0.201-0.448-0.448V7.441c0-0.247,0.201-0.448,0.448-0.448h62.329
			C94.955,6.993,95.156,7.194,95.156,7.441z"/>
	</g>
</g>
<g id="phone-inline">
	<g>
		<path d="M90.068,20.645H36.892c-1.874,0-3.399,1.525-3.399,3.399v79.766c0,1.874,1.525,3.398,3.399,3.398h53.177
			c1.874,0,3.399-1.524,3.399-3.398V24.044C93.468,22.17,91.942,20.645,90.068,20.645z M86.669,27.443v72.967H40.291V27.443H86.669z
			"/>
	</g>
</g>
</svg>
