<?xml version="1.0" encoding="utf-8"?>
<!-- Generator: Adobe Illustrator 18.0.0, SVG Export Plug-In . SVG Version: 6.00 Build 0)  -->
<!DOCTYPE svg PUBLIC "-//W3C//DTD SVG 1.1//EN" "http://www.w3.org/Graphics/SVG/1.1/DTD/svg11.dtd">
<svg version="1.1" xmlns="http://www.w3.org/2000/svg" xmlns:xlink="http://www.w3.org/1999/xlink" x="0px" y="0px"
	 viewBox="0 0 128 128" enable-background="new 0 0 128 128" xml:space="preserve">
<g id="power-switch-body">
	<path d="M122.964,28.92H4.744c-2.212,0-4.008,1.788-4.008,4.001v61.775c0,2.218,1.796,3.999,4.008,3.999h118.22
		c2.212,0,4.001-1.782,4.001-3.999V32.921C126.965,30.708,125.176,28.92,122.964,28.92z M90.667,52.476h4.794v24.01h-4.794V52.476z
		 M8.739,36.923h54.476v53.769H8.739V36.923z"/>
	<rect x="90.523" y="52.111" width="4.937" height="24.731"/>
</g>
<g id="power-I">
	<rect x="90.742" y="52.471" fill="#FFFFFF" width="4.794" height="24.01"/>
</g>
<g id="power-O">
	<path d="M37.578,51.349c-7.97,0-12.004,6.317-12.004,13.13c0,6.799,4.033,13.123,12.004,13.123c7.964,0,12.01-6.324,12.01-13.123
		C49.588,57.666,45.542,51.349,37.578,51.349z M37.578,73.883c-5.567,0-7.906-4.8-7.906-9.404c0-4.61,2.339-9.41,7.906-9.41
		s7.906,4.8,7.906,9.41C45.485,69.083,43.145,73.883,37.578,73.883z"/>
</g>
</svg>
