<?xml version="1.0" encoding="utf-8"?>
<svg xmlns="http://www.w3.org/2000/svg" x="0px" y="0px" xmlns:xlink="http://www.w3.org/1999/xlink" viewBox="0 0 128 128" enable-background="new 0 0 128 128">
    <g class="sun">
        <path d="M102.015,93.594l2.665,1.552c1.023,0.583,2.133,0.861,3.246,0.861c2.223,0,4.388-1.157,5.588-3.234
		c1.786-3.099,0.703-7.051-2.372-8.837l-3.156-1.816c1.403-3.847,2.252-7.915,2.633-12.142h8.777c3.572,0,6.467-2.898,6.467-6.468
		c0-3.569-2.895-6.464-6.467-6.464h-9.22c-0.73-3.982-1.929-7.757-3.569-11.326l4.535-2.62c3.076-1.783,4.158-5.734,2.372-8.822
		c-1.783-3.102-5.701-4.17-8.834-2.384l-5.094,2.941c-2.486-2.929-5.208-5.576-8.284-7.858l3.159-5.486
		c1.788-3.088,0.706-7.036-2.37-8.837c-3.102-1.756-7.048-0.703-8.834,2.384l-3.305,5.723c-3.368-1.289-6.97-2.124-10.626-2.636
		V6.788c0-3.569-2.922-6.468-6.497-6.468c-3.536,0-6.438,2.898-6.438,6.468v11.337c-3.716,0.512-7.284,1.331-10.68,2.636
		l-3.305-5.723c-1.786-3.117-5.764-4.14-8.84-2.372c-3.099,1.801-4.155,5.737-2.369,8.84l3.189,5.472
		c-3.072,2.267-5.791,4.888-8.224,7.784l-5.235-3.028c-3.042-1.786-7.027-0.745-8.84,2.354c-1.78,3.076-0.73,7.036,2.372,8.825
		l4.682,2.723"/>
        <path d="M25.03,34.232l-2.665-1.552c-1.023-0.583-2.133-0.861-3.246-0.861c-2.223,0-4.388,1.157-5.588,3.234
		c-1.786,3.099-0.703,7.051,2.372,8.837l3.156,1.816c-1.403,3.847-2.252,7.915-2.633,12.142H7.649c-3.572,0-6.467,2.898-6.467,6.468
		c0,3.569,2.895,6.464,6.467,6.464h9.22c0.73,3.982,1.929,7.757,3.569,11.326l-4.535,2.62c-3.076,1.783-4.158,5.734-2.372,8.822
		c1.783,3.102,5.701,4.17,8.834,2.384l5.094-2.941c2.486,2.929,5.208,5.576,8.284,7.858l-3.159,5.486
		c-1.788,3.088-0.706,7.036,2.37,8.837c3.102,1.756,7.048,0.703,8.834-2.384l3.305-5.723c3.368,1.289,6.97,2.124,10.626,2.636
		v11.337c0,3.569,2.922,6.468,6.497,6.468c3.536,0,6.438-2.898,6.438-6.468v-11.337c3.716-0.512,7.284-1.331,10.68-2.636
		l3.305,5.723c1.786,3.117,5.764,4.14,8.84,2.372c3.099-1.801,4.155-5.737,2.369-8.84l-3.189-5.472
		c3.072-2.267,5.791-4.888,8.224-7.784l5.235,3.028c3.042,1.786,7.027,0.745,8.84-2.354c1.78-3.076,0.73-7.036-2.372-8.825
		l-4.682-2.723"/>
    </g>
    <g class="sun-fill">
        <ellipse cx="63.58" cy="64.259" rx="36.088" ry="36.14" fill="#FFFFFF"/>
    </g>
</svg>
