<?xml version="1.0" encoding="utf-8"?>
<!-- Generator: Adobe Illustrator 18.0.0, SVG Export Plug-In . SVG Version: 6.00 Build 0)  -->
<!DOCTYPE svg PUBLIC "-//W3C//DTD SVG 1.1//EN" "http://www.w3.org/Graphics/SVG/1.1/DTD/svg11.dtd">
<svg version="1.1" xmlns="http://www.w3.org/2000/svg" xmlns:xlink="http://www.w3.org/1999/xlink" x="0px" y="0px"
	 viewBox="0 0 128 128" style="enable-background:new 0 0 128 128;" xml:space="preserve">
<g id="chat-bubbles">
	<path d="M96.571,41.94c-5.36-16.638-24.315-28.992-46.876-28.992c-26.707,0-48.443,17.284-48.443,38.531
		c0,14.411,10.104,27.544,26.008,34.134v20.595c0,1.671,0.96,3.188,2.477,3.905c0.582,0.277,1.215,0.414,1.838,0.414
		c0.986,0,1.963-0.338,2.747-0.998L58.83,89.286c0.936-0.143,1.83-0.379,2.749-0.557c4.364,4.435,10.29,7.899,17.369,9.727
		c1.322,0.338,2.672,0.625,4.054,0.834l17.597,14.537c0.784,0.659,1.761,0.997,2.749,0.997c0.623,0,1.255-0.136,1.836-0.413
		c1.517-0.718,2.478-2.234,2.478-3.902V96.283c11.596-5.074,18.928-14.869,18.928-25.631C126.59,56.299,113.604,44.383,96.571,41.94
		z M56.488,80.891c-0.126,0.017-0.212,0.12-0.338,0.143c-0.673,0.143-1.33,0.373-1.87,0.817L35.89,97.041V82.644
		c0-1.835-1.163-3.471-2.89-4.079C18.958,73.662,9.882,63.027,9.882,51.479c0-16.485,17.858-29.901,39.812-29.901
		c17.353,0,31.992,8.429,37.428,20.082c1.247,2.672,2.014,5.487,2.2,8.453c0.034,0.458,0.186,0.895,0.186,1.367
		c0,12.118-9.87,22.907-24.694,27.516c-0.767,0.246-1.491,0.533-2.284,0.741C60.568,80.242,58.56,80.632,56.488,80.891z
		 M101.923,89.268c-1.729,0.608-2.89,2.241-2.89,4.079v7.991l-11.48-9.474c-0.632-0.529-1.407-0.861-2.217-0.96
		c-1.457-0.188-2.873-0.454-4.238-0.81c-3.634-0.936-6.818-2.426-9.549-4.264c16.148-6.457,26.591-19.604,26.591-34.353
		c0-0.161-0.026-0.311-0.034-0.472c11.445,2.562,19.855,10.349,19.855,19.645C117.96,78.558,111.665,85.866,101.923,89.268z"/>
</g>
<g id="chat-line2">
	<path d="M55.316,54.8H28.473c-2.385,0-4.315,1.93-4.315,4.315s1.93,4.315,4.315,4.315h26.843c2.385,0,4.315-1.93,4.315-4.315
		S57.701,54.8,55.316,54.8z"/>
</g>
<g id="chat-line1">
	<path d="M28.473,47.83h41.095c2.385,0,4.315-1.93,4.315-4.315s-1.93-4.315-4.315-4.315H28.473c-2.385,0-4.315,1.93-4.315,4.315
		S26.089,47.83,28.473,47.83z"/>
</g>
</svg>
