<?xml version="1.0" encoding="utf-8"?>
<svg xmlns="http://www.w3.org/2000/svg" x="0px" y="0px" xmlns:xlink="http://www.w3.org/1999/xlink" viewBox="0 0 128 128" enable-background="new 0 0 128 128">
    <g class="windows-front">
        <g>
            <path d="M83.074,114.733H7.344c-2.787,0-5.043-2.268-5.043-5.043V47.948c0-2.779,2.256-5.043,5.043-5.043h75.729
			c2.787,0,5.043,2.264,5.043,5.043v61.741C88.117,112.465,85.861,114.733,83.074,114.733z M12.387,104.646H78.03V52.991H12.387
			V104.646z"/>
        </g>
    </g>
    <g class="windows-back">
        <g>
            <path d="M120.948,84.274h-19.742c-2.787,0-5.043-2.264-5.043-5.04c0-2.799,2.256-5.047,5.043-5.047h14.699V22.536H50.252v5.966
			c0,2.799-2.256,5.043-5.043,5.043c-2.787,0-5.043-2.244-5.043-5.043V17.492c0-2.779,2.256-5.043,5.043-5.043h75.74
			c2.787,0,5.043,2.264,5.043,5.043v61.741C125.991,82.009,123.735,84.274,120.948,84.274z"/>
        </g>
    </g>
</svg>
