<?xml version="1.0" encoding="utf-8"?>
<svg xmlns="http://www.w3.org/2000/svg" x="0px" y="0px" xmlns:xlink="http://www.w3.org/1999/xlink" viewBox="0 0 128 128" enable-background="new 0 0 128 128">
    <g class="pie-chart-piece">
        <path d="M124.989,90.23c-0.538-1.001-1.477-1.725-2.586-1.987l-39.987-9.401c-1.285-0.309-2.67,0.069-3.632,0.992
		c-0.962,0.929-1.393,2.286-1.131,3.593l7.879,40.257c0.215,1.111,0.908,2.077,1.892,2.648c0.6,0.353,1.285,0.531,1.97,0.531
		c0.432,0,0.855-0.069,1.262-0.209c1.033-0.352,25.224-8.815,34.533-33.17C125.59,92.423,125.513,91.238,124.989,90.23z
		 M92.318,117.346l-5.763-29.439l29.424,6.924C109.608,107.358,98.398,114.329,92.318,117.346z"/>
    </g>
    <g class="pie-chart-pie">
        <path d="M70.05,70.807l34.056,8.01c1.94,0.455,3.895-0.593,4.587-2.446c2.353-6.263,3.554-12.842,3.554-19.576
		c0-30.662-24.954-55.616-55.624-55.616c-30.662,0-55.616,24.954-55.616,55.616c0,30.672,24.954,55.625,55.616,55.625
		c5.994,0,11.889-0.97,17.521-2.864c1.878-0.63,2.993-2.555,2.615-4.492L70.05,70.807z M56.623,104.541
		c-26.323,0-47.737-21.423-47.737-47.746S30.3,9.059,56.623,9.059s47.745,21.413,47.745,47.737c0,4.616-0.654,9.149-1.954,13.534
		l-36.503-8.584c-1.293-0.309-2.67,0.069-3.632,0.992c-0.968,0.929-1.393,2.283-1.138,3.593l7.194,36.732
		C64.526,104.049,60.602,104.541,56.623,104.541z"/>
    </g>
</svg>
