<?xml version="1.0" encoding="utf-8"?>
<svg xmlns="http://www.w3.org/2000/svg" x="0px" y="0px" xmlns:xlink="http://www.w3.org/1999/xlink" viewBox="-77 51 128 128" enable-background="new -77 51 128 128">
    <g class="ham-lg-bottom">
        <path d="M21.997,148.033h-69.995c-2.758,0-5.002-2.244-5.002-5.003v-3.994c0-2.759,2.244-5.003,5.002-5.003h69.995
		c2.759,0,5.003,2.244,5.003,5.003v3.994C27,145.789,24.756,148.033,21.997,148.033z M-47.998,138.033
		c-0.553,0-1.002,0.45-1.002,1.003v3.994c0,0.553,0.45,1.003,1.002,1.003h69.995c0.553,0,1.003-0.45,1.003-1.003v-3.994
		c0-0.553-0.45-1.003-1.003-1.003H-47.998z"/>
    </g>
    <g class="ham-lg-middle">
        <path d="M21.997,122h-69.995c-2.758,0-5.002-2.244-5.002-5.003v-3.994c0-2.759,2.244-5.003,5.002-5.003h69.995
		c2.759,0,5.003,2.244,5.003,5.003v3.994C27,119.756,24.756,122,21.997,122z M-47.998,112c-0.552,0-1.002,0.45-1.002,1.003v3.994
		c0,0.553,0.45,1.003,1.002,1.003h69.995c0.553,0,1.003-0.45,1.003-1.003v-3.994c0-0.553-0.45-1.003-1.003-1.003H-47.998z"/>
    </g>
    <g class="ham-lg-top">
        <path d="M21.997,95.967h-69.995c-2.758,0-5.002-2.244-5.002-5.003V86.97c0-2.759,2.244-5.003,5.002-5.003h69.995
		c2.759,0,5.003,2.244,5.003,5.003v3.994C27,93.723,24.756,95.967,21.997,95.967z M-47.998,85.967c-0.553,0-1.002,0.45-1.002,1.003
		v3.994c0,0.553,0.45,1.003,1.002,1.003h69.995c0.553,0,1.003-0.45,1.003-1.003V86.97c0-0.553-0.45-1.003-1.003-1.003H-47.998z"/>
    </g>
</svg>
