<?xml version="1.0" encoding="utf-8"?>
<!-- Generator: Adobe Illustrator 18.0.0, SVG Export Plug-In . SVG Version: 6.00 Build 0)  -->
<!DOCTYPE svg PUBLIC "-//W3C//DTD SVG 1.1//EN" "http://www.w3.org/Graphics/SVG/1.1/DTD/svg11.dtd">
<svg version="1.1" xmlns="http://www.w3.org/2000/svg" xmlns:xlink="http://www.w3.org/1999/xlink" x="0px" y="0px"
	 viewBox="0 0 128 128" style="enable-background:new 0 0 128 128;" xml:space="preserve">
<g id="sound-cone">
	<path d="M59.738,13.206c-1.706-0.705-3.67-0.311-4.995,1.007L27.025,42.111H5.673c-2.542,0-4.585,2.051-4.585,4.585v33.102
		c0,2.536,2.044,4.587,4.585,4.587h21.249l27.834,27.895c0.879,0.881,2.059,1.347,3.245,1.347c0.586,0,1.194-0.113,1.751-0.35
		c1.721-0.707,2.834-2.383,2.834-4.236V17.445C62.587,15.586,61.459,13.911,59.738,13.206z"/>
</g>
<g id="sound-wave-left">
	<path d="M87.184,63.109c0-9.081-5.398-17.237-13.763-20.784c-2.322-0.97-5.018,0.099-5.999,2.432
		c-1.004,2.333,0.088,5.027,2.417,6.015c4.966,2.1,8.167,6.946,8.167,12.337c0,5.325-3.172,10.149-8.072,12.28
		c-2.329,1.007-3.391,3.706-2.388,6.032c0.755,1.729,2.439,2.758,4.212,2.758c0.608,0,1.238-0.121,1.831-0.381
		C81.844,80.211,87.184,72.088,87.184,63.109z"/>
</g>
<g id="sound-wave-middle">
	<path d="M107.474,63.117c0-17.182-10.211-32.661-26.025-39.444c-2.329-0.996-5.032,0.079-6.021,2.41
		c-1.003,2.326,0.074,5.021,2.403,6.019c12.452,5.334,20.473,17.506,20.473,31.015c0,13.45-7.992,25.591-20.371,30.927
		c-2.322,1.005-3.399,3.701-2.395,6.024c0.747,1.738,2.439,2.773,4.227,2.773c0.593,0,1.216-0.121,1.809-0.377
		C97.314,95.679,107.474,80.235,107.474,63.117z"/>
</g>
<g id="sound-wave-right">
	<path d="M89.242,5.524c-2.329-1.007-5.039,0.071-6.021,2.406c-1.004,2.329,0.073,5.025,2.402,6.021
		c19.704,8.457,32.434,27.757,32.434,49.177c0,21.343-12.679,40.603-32.324,49.076c-2.329,1.003-3.406,3.699-2.41,6.023
		c0.755,1.738,2.439,2.773,4.212,2.773c0.608,0,1.238-0.121,1.831-0.377c23-9.918,37.869-32.489,37.869-57.494
		C127.236,38.037,112.33,15.425,89.242,5.524z"/>
</g>
</svg>
