<?xml version="1.0" encoding="utf-8"?>
<svg xmlns="http://www.w3.org/2000/svg" x="0px" y="0px" xmlns:xlink="http://www.w3.org/1999/xlink" viewBox="0 0 128 128" enable-background="new 0 0 128 128">
    <g class="battery-charging-outline">
        <path d="M121.715,43.034h-4.27V31.421c0-2.996-2.434-5.44-5.44-5.44H6.504c-3.006,0-5.44,2.444-5.44,5.44V94.28
		c0,3.006,2.434,5.44,5.44,5.44h105.5c3.006,0,5.44-2.434,5.44-5.44V83.124h4.27c3.009,0,5.44-2.423,5.44-5.44v-29.21
		C127.155,45.467,124.724,43.034,121.715,43.034z M106.564,88.84h-94.62V36.861h94.62v11.613v29.21V88.84z"/>
    </g>
    <g class="battery-charging-bolt">
        <polygon points="55.446,46.159 55.287,46.169 27.033,72.117 53.215,61.013 63.064,79.553 91.475,53.584 65.284,64.699 	"/>
    </g>
</svg>
