<?xml version="1.0" encoding="utf-8"?>
<svg xmlns="http://www.w3.org/2000/svg" x="0px" y="0px" xmlns:xlink="http://www.w3.org/1999/xlink" viewBox="0 0 128 128" enable-background="new 0 0 128 128">
    <g class="notebook-outline">
        <path d="M102.983,0.761H23.822c-4.24,0-7.438,3.197-7.438,7.437v4.619c0,1.918,1.561,3.479,3.479,3.479s3.479-1.561,3.479-3.479
		V8.198c0-0.412,0.067-0.479,0.479-0.479h16.557v111.785H23.822c-0.412,0-0.479-0.067-0.479-0.479v-3.629
		c0-1.919-1.561-3.479-3.479-3.479s-3.479,1.561-3.479,3.479v3.629c0,4.24,3.197,7.438,7.438,7.438h79.161
		c4.24,0,7.438-3.197,7.438-7.438V8.198C110.421,3.958,107.224,0.761,102.983,0.761z M103.463,8.198v110.826
		c0,0.412-0.067,0.479-0.479,0.479H47.337V7.719h55.646C103.396,7.719,103.463,7.787,103.463,8.198z"/>
    </g>
    <g class="notebook-line-right">
        <path d="M114.858,8.677c-1.919,0-3.479,1.561-3.479,3.479v102.91c0,1.919,1.561,3.479,3.479,3.479c1.918,0,3.479-1.561,3.479-3.479
		V12.156C118.337,10.238,116.776,8.677,114.858,8.677z"/>
    </g>
    <g class="notebook-line6">
        <path d="M27.78,99.713H11.948c-1.918,0-3.479,1.561-3.479,3.479s1.561,3.479,3.479,3.479H27.78c1.918,0,3.479-1.561,3.479-3.479
		S29.699,99.713,27.78,99.713z"/>
    </g>
    <g class="notebook-line5">
        <path d="M27.78,83.881H11.948c-1.918,0-3.479,1.561-3.479,3.479c0,1.918,1.561,3.479,3.479,3.479H27.78
		c1.918,0,3.479-1.561,3.479-3.479C31.259,85.441,29.699,83.881,27.78,83.881z"/>
    </g>
    <g class="notebook-line4">
        <path d="M27.78,68.049H11.948c-1.918,0-3.479,1.561-3.479,3.479c0,1.919,1.561,3.479,3.479,3.479H27.78
		c1.918,0,3.479-1.561,3.479-3.479C31.259,69.609,29.699,68.049,27.78,68.049z"/>
    </g>
    <g class="notebook-line3">
        <path d="M27.78,52.216H11.948c-1.918,0-3.479,1.561-3.479,3.479s1.561,3.479,3.479,3.479H27.78c1.918,0,3.479-1.561,3.479-3.479
		S29.699,52.216,27.78,52.216z"/>
    </g>
    <g class="notebook-line2">
        <path d="M27.78,36.384H11.948c-1.918,0-3.479,1.561-3.479,3.479s1.561,3.479,3.479,3.479H27.78c1.918,0,3.479-1.561,3.479-3.479
		S29.699,36.384,27.78,36.384z"/>
    </g>
    <g class="notebook-line1">
        <path d="M27.78,20.552H11.948c-1.918,0-3.479,1.561-3.479,3.479s1.561,3.479,3.479,3.479H27.78c1.918,0,3.479-1.561,3.479-3.479
		S29.699,20.552,27.78,20.552z"/>
    </g>
</svg>
