<?xml version="1.0" encoding="utf-8"?>
<!-- Generator: Adobe Illustrator 18.0.0, SVG Export Plug-In . SVG Version: 6.00 Build 0)  -->
<!DOCTYPE svg PUBLIC "-//W3C//DTD SVG 1.1//EN" "http://www.w3.org/Graphics/SVG/1.1/DTD/svg11.dtd">
<svg version="1.1" xmlns="http://www.w3.org/2000/svg" xmlns:xlink="http://www.w3.org/1999/xlink" x="0px" y="0px"
	 viewBox="0 0 128 128" style="enable-background:new 0 0 128 128;" xml:space="preserve">
<g id="newspaper-outline">
	<path d="M123.407,16.317c-1.551,0-2.813,1.262-2.813,2.813v76.903c0,5.65-4.597,10.245-10.246,10.245s-10.245-4.596-10.245-10.245
		V19.13c0-1.551-1.262-2.813-2.813-2.813H4.426c-1.551,0-2.813,1.262-2.813,2.813v76.902c-0.001,4.234,1.65,8.219,4.65,11.22
		c3.001,3.002,6.985,4.654,11.219,4.654h92.921l0.262-0.006l0.029-0.009c8.582-0.188,15.527-7.256,15.527-15.858V19.13
		C126.22,17.579,124.958,16.317,123.407,16.317z M7.236,21.944H94.47v74.089c0,0.883,0.091,1.794,0.287,2.876l0.026,0.138
		c0.025,0.143,0.051,0.286,0.081,0.415c0.203,0.916,0.476,1.787,0.799,2.571c0.049,0.122,0.105,0.241,0.162,0.359l0.044,0.093
		c0.354,0.797,0.763,1.548,1.236,2.268l0.132,0.215c0.302,0.438,0.633,0.866,1.017,1.31H17.482c-5.649,0-10.245-4.596-10.245-10.245
		V21.944z"/>
</g>
<g id="newspaper-block">
	<path d="M45.051,48.085h-29.02c-1.636,0-2.967,1.331-2.967,2.967V77.17c0,1.636,1.331,2.967,2.967,2.967h29.02
		c1.636,0,2.968-1.331,2.968-2.967V51.052C48.018,49.416,46.687,48.085,45.051,48.085z M18.998,74.203V54.019h23.086v20.183H18.998z
		"/>
</g>
<g id="newspaper-pages">
	<path d="M114.698,16.163c-1.636,0-2.967,1.331-2.967,2.967v76.903c0,0.899-0.221,1.386-1.386,1.386
		c-1.387,0-1.387-1.043-1.387-1.386V19.13c0-1.636-1.331-2.967-2.967-2.967s-2.967,1.331-2.967,2.967v76.903
		c0,4.755,3.771,7.32,7.321,7.32c4.309,0,7.32-3.01,7.32-7.32V19.13C117.665,17.494,116.335,16.163,114.698,16.163z"/>
</g>
<g id="newspaper-head">
	<path d="M85.679,24.869H16.031c-1.636,0-2.967,1.331-2.967,2.967v11.608c0,1.636,1.331,2.967,2.967,2.967h69.648
		c1.636,0,2.967-1.331,2.967-2.967V27.836C88.646,26.2,87.315,24.869,85.679,24.869z M18.998,36.477v-5.674h63.714v5.674H18.998z"/>
</g>
<g id="newspaper-line8">
	<path d="M45.051,91.615h-29.02c-1.636,0-2.967,1.331-2.967,2.967s1.331,2.967,2.967,2.967h29.02c1.636,0,2.968-1.331,2.968-2.967
		S46.687,91.615,45.051,91.615z"/>
</g>
<g id="newspaper-line7">
	<path d="M85.679,91.615h-29.02c-1.636,0-2.967,1.331-2.967,2.967s1.331,2.967,2.967,2.967h29.02c1.636,0,2.967-1.331,2.967-2.967
		S87.315,91.615,85.679,91.615z"/>
</g>
<g id="newspaper-line6">
	<path d="M45.051,82.909h-29.02c-1.636,0-2.967,1.331-2.967,2.967s1.331,2.967,2.967,2.967h29.02c1.636,0,2.968-1.331,2.968-2.967
		S46.687,82.909,45.051,82.909z"/>
</g>
<g id="newspaper-line5">
	<path d="M85.679,82.909h-29.02c-1.636,0-2.967,1.331-2.967,2.967s1.331,2.967,2.967,2.967h29.02c1.636,0,2.967-1.331,2.967-2.967
		S87.315,82.909,85.679,82.909z"/>
</g>
<g id="newspaper-line4">
	<path d="M85.679,74.203h-29.02c-1.636,0-2.967,1.331-2.967,2.967s1.331,2.967,2.967,2.967h29.02c1.636,0,2.967-1.331,2.967-2.967
		S87.315,74.203,85.679,74.203z"/>
</g>
<g id="newspaper-line3">
	<path d="M85.679,65.497h-29.02c-1.636,0-2.967,1.331-2.967,2.967s1.331,2.967,2.967,2.967h29.02c1.636,0,2.967-1.331,2.967-2.967
		S87.315,65.497,85.679,65.497z"/>
</g>
<g id="newspaper-line2">
	<path d="M85.679,56.791h-29.02c-1.636,0-2.967,1.331-2.967,2.967c0,1.636,1.331,2.967,2.967,2.967h29.02
		c1.636,0,2.967-1.331,2.967-2.967C88.646,58.122,87.315,56.791,85.679,56.791z"/>
</g>
<g id="Layer_12">
	<path d="M85.679,48.085h-29.02c-1.636,0-2.967,1.331-2.967,2.967c0,1.636,1.331,2.967,2.967,2.967h29.02
		c1.636,0,2.967-1.331,2.967-2.967C88.646,49.416,87.315,48.085,85.679,48.085z"/>
</g>
</svg>
