<?xml version="1.0" encoding="utf-8"?>
<!-- Generator: Adobe Illustrator 18.0.0, SVG Export Plug-In . SVG Version: 6.00 Build 0)  -->
<!DOCTYPE svg PUBLIC "-//W3C//DTD SVG 1.1//EN" "http://www.w3.org/Graphics/SVG/1.1/DTD/svg11.dtd">
<svg version="1.1" xmlns="http://www.w3.org/2000/svg" xmlns:xlink="http://www.w3.org/1999/xlink" x="0px" y="0px"
	 viewBox="0 0 128 128" style="enable-background:new 0 0 128 128;" xml:space="preserve">
<g id="microphone-stand">
	<path d="M98.422,65.183c0-2.609-2.113-4.722-4.724-4.722c-2.611,0-4.725,2.113-4.725,4.722c0,14-11.388,25.392-25.389,25.392
		c-13.992,0-25.389-11.392-25.389-25.392c0-2.609-2.121-4.722-4.732-4.722c-2.611,0-4.725,2.113-4.725,4.722
		c0,17.594,13.155,32.034,30.121,34.362v23.14c0,2.613,2.113,4.726,4.725,4.726c2.611,0,4.732-2.113,4.732-4.726v-23.14
		C85.275,97.217,98.422,82.777,98.422,65.183z"/>
</g>
<g id="microphone-mic">
	<path d="M63.584,83.116c9.94,0,18.015-8.08,18.015-18.01V18.831c0-9.934-8.075-18.013-18.015-18.013
		c-9.932,0-18.008,8.079-18.008,18.013v46.275C45.576,75.036,53.652,83.116,63.584,83.116z"/>
</g>
</svg>
