<?xml version="1.0" encoding="utf-8"?>
<svg xmlns="http://www.w3.org/2000/svg" x="0px" y="0px" xmlns:xlink="http://www.w3.org/1999/xlink" viewBox="-19 -19 128 128" enable-background="new -19 -19 128 128">
    <g class="cambody">
        <path d="M59.158,85.095c-18.803,0-34.045-15.248-34.045-34.059s15.243-34.058,34.045-34.058c18.8,0,34.043,15.246,34.043,34.058
		C93.201,69.848,77.958,85.095,59.158,85.095z"/>
        <path d="M92.969,11.558h-4.299l-2.535-8.445c-1.213-4.041-5.828-7.207-10.5-7.207H39.293c-4.684,0-9.26,3.18-10.413,7.237
		l-2.396,8.415H-3.091c-8.772,0-15.909,7.14-15.909,15.916v51.813c0,8.776,7.137,15.916,15.909,15.916h96.06
		c8.769,0.001,15.906-7.14,15.906-15.916V27.474C108.875,18.698,101.738,11.558,92.969,11.558z M59.159,85.094
		c-18.803,0-34.045-15.248-34.045-34.059s15.243-34.058,34.045-34.058c18.8,0,34.043,15.246,34.043,34.058
		C93.202,69.848,77.959,85.094,59.159,85.094z"/>
    </g>
    <g class="camOuterCircle">
        <path fill="#FFFFFF" d="M59.158,85.095c-18.803,0-34.045-15.248-34.045-34.059s15.243-34.058,34.045-34.058
		c18.8,0,34.043,15.246,34.043,34.058C93.201,69.848,77.958,85.095,59.158,85.095z"/>
    </g>
    <g class="camsmOutterCircle" display="none">
        <path d="M59.158,27.616c-12.936,0-23.421,10.485-23.421,23.419c0,12.936,10.485,23.422,23.421,23.422
		s23.42-10.486,23.42-23.422C82.578,38.101,72.093,27.616,59.158,27.616z M59.158,69.091c-9.956,0-18.057-8.1-18.057-18.057
		c0-9.956,8.101-18.055,18.057-18.055c9.955,0,18.056,8.099,18.056,18.055C77.213,60.992,69.113,69.091,59.158,69.091z"/>
    </g>
    <g class="camcircleFill" display="none">
        <path d="M59.158,37.041c-7.719,0-13.997,6.278-13.997,13.996c0,7.719,6.278,13.994,13.997,13.994
		c7.717,0,13.995-6.275,13.995-13.994C73.153,43.319,66.874,37.041,59.158,37.041z"/>
    </g>
    <g class="camInnerCircle">
        <path d="M59.159,77.427c-14.546,0-26.381-11.839-26.381-26.391s11.834-26.391,26.381-26.391c14.545,0,26.378,11.839,26.378,26.391
		S73.704,77.427,59.159,77.427z M59.159,30.815c-11.146,0-20.211,9.07-20.211,20.22s9.065,20.22,20.211,20.22
		s20.213-9.07,20.213-20.22S70.305,30.815,59.159,30.815z"/>
    </g>
    <g class="camshutter">
        <path d="M0.282,8.289V4.036c0-1.923,1.557-3.48,3.477-3.48h11.45c1.922,0,3.478,1.558,3.478,3.48v4.253H0.282z"/>
    </g>
    <g class="cambtn2">
        <path fill="#FFFFFF" d="M6.234,55.417c0,1.501-1.215,2.714-2.714,2.714h-8.836c-1.499,0-2.715-1.214-2.715-2.714v-2.891
		c0-1.5,1.216-2.715,2.715-2.715H3.52c1.499,0,2.714,1.215,2.714,2.715V55.417z"/>
    </g>
    <g class="cambtn1">
        <path fill="#FFFFFF" d="M6.234,43.75c0,1.498-1.215,2.712-2.714,2.712h-8.836c-1.499,0-2.715-1.214-2.715-2.712v-2.895
		c0-1.498,1.216-2.712,2.715-2.712H3.52c1.499,0,2.714,1.214,2.714,2.712V43.75z"/>
    </g>
</svg>
