<?xml version="1.0" encoding="utf-8"?>
<!-- Generator: Adobe Illustrator 18.0.0, SVG Export Plug-In . SVG Version: 6.00 Build 0)  -->
<!DOCTYPE svg PUBLIC "-//W3C//DTD SVG 1.1//EN" "http://www.w3.org/Graphics/SVG/1.1/DTD/svg11.dtd">
<svg version="1.1" xmlns="http://www.w3.org/2000/svg" xmlns:xlink="http://www.w3.org/1999/xlink" x="0px" y="0px"
	 viewBox="0 0 128 128" style="enable-background:new 0 0 128 128;" xml:space="preserve">
<g id="mute-top">
	<path d="M19.711,85.635h6.346l10.316-10.316H24.869V48.4h21.012c1.372,0,2.679-0.553,3.659-1.521l23.866-24.028v15.445
		L83.723,27.98V10.34c0-2.085-1.27-3.98-3.206-4.766c-1.915-0.805-4.129-0.361-5.619,1.129L43.725,38.084H19.711
		c-2.863,0-5.158,2.308-5.158,5.158v37.235C14.553,83.328,16.848,85.635,19.711,85.635z"/>
</g>
<g id="mute-bottom">
	<path d="M73.407,100.897L57.426,84.9l-7.294,7.292l24.773,24.824c0.988,0.988,2.308,1.511,3.659,1.511
		c0.662,0,1.327-0.123,1.964-0.392c1.924-0.796,3.194-2.679,3.194-4.766V58.606L73.407,68.922V100.897z"/>
</g>
<g id="mute-slash">
	<path d="M124.603,2.411c-1.107-1.109-2.561-1.652-4.01-1.652c-1.45,0-2.899,0.543-4.01,1.652L83.723,35.274L73.407,45.59
		L43.667,75.319L33.351,85.635L2.706,116.289c-2.218,2.218-2.218,5.803,0,8.021c1.107,1.107,2.556,1.662,4.006,1.662
		c1.454,0,2.904-0.556,4.01-1.662l35.763-35.765l7.306-7.302l19.615-19.615l10.316-10.316l40.88-40.882
		C126.82,8.224,126.82,4.628,124.603,2.411z"/>
</g>
</svg>
