<?xml version="1.0" encoding="utf-8"?>
<svg xmlns="http://www.w3.org/2000/svg" class="baby-bottle" x="0px" y="0px" xmlns:xlink="http://www.w3.org/1999/xlink" viewBox="0 0 128 128" enable-background="new 0 0 128 128">
    <path d="M89.871,30.363H83.25c-0.888-8.727-7.254-15.844-15.657-17.71V5.34c0-2.418-1.95-4.363-4.363-4.363
	c-2.411,0-4.364,1.945-4.364,4.363v7.314c-8.402,1.866-14.77,8.983-15.656,17.71h-6.621c-2.412,0-4.363,1.942-4.363,4.363v13.312
	c0,2.266,1.755,4.073,3.971,4.277v70.396c0,2.422,1.952,4.363,4.363,4.363H85.9c2.412,0,4.363-1.942,4.363-4.363V52.315
	c2.216-0.204,3.972-2.011,3.972-4.277V34.727C94.235,32.305,92.282,30.363,89.871,30.363z M44.923,118.348V52.402h36.613v65.946
	H44.923z"/>
</svg>
