<?xml version="1.0" encoding="utf-8"?>
<svg xmlns="http://www.w3.org/2000/svg" class="calendar" x="0px" y="0px" xmlns:xlink="http://www.w3.org/1999/xlink" viewBox="0 0 128 128" enable-background="new 0 0 128 128">
    <path d="M119.521,2.643H96.616v11.451c0,3.006-2.433,5.439-5.439,5.439c-3.006,0-5.439-2.433-5.439-5.439V2.643H43.02v11.451
	c0,3.006-2.433,5.439-5.439,5.439s-5.439-2.433-5.439-5.439V2.643H7.941c-3.006,0-5.439,2.433-5.439,5.439v111.558
	c0,3.019,2.433,5.439,5.439,5.439h111.58c3.006,0,5.439-2.42,5.439-5.439V8.083C124.96,5.076,122.527,2.643,119.521,2.643z
	 M114.082,114.201H13.38V29.194h100.702V114.201z"/>
</svg>
