<?xml version="1.0" encoding="utf-8"?>
<!-- Generator: Adobe Illustrator 18.0.0, SVG Export Plug-In . SVG Version: 6.00 Build 0)  -->
<!DOCTYPE svg PUBLIC "-//W3C//DTD SVG 1.1//EN" "http://www.w3.org/Graphics/SVG/1.1/DTD/svg11.dtd">
<svg version="1.1" xmlns="http://www.w3.org/2000/svg" xmlns:xlink="http://www.w3.org/1999/xlink" x="0px" y="0px"
	 viewBox="0 0 128 128" style="enable-background:new 0 0 128 128;" xml:space="preserve">
<g id="battery-outline">
	<path d="M121.687,43.225h-4.276V31.599c0-2.999-2.436-5.447-5.447-5.447H6.342c-3.01,0-5.447,2.447-5.447,5.447v62.933
		c0,3.01,2.437,5.447,5.447,5.447h105.622c3.01,0,5.447-2.437,5.447-5.447V83.363h4.276c3.01,0,5.447-2.426,5.447-5.447V48.672
		C127.134,45.662,124.697,43.225,121.687,43.225z M106.518,89.085H11.789v-52.04h94.729v11.626v29.244V89.085z"/>
</g>
<g id="battery-line1">
	<rect x="17.011" y="42.013" width="17.053" height="42.093"/>
</g>
<g id="battery-line2" style="display:none;">
	<rect x="39.152" y="42.019" style="display:inline;" width="17.053" height="42.093"/>
</g>
<g id="battery-line3" style="display:none;">
	<rect x="60.998" y="42.019" style="display:inline;" width="17.053" height="42.093"/>
</g>
<g id="battery-line4" style="display:none;">
	<rect x="83.723" y="42.013" style="display:inline;" width="17.053" height="42.093"/>
</g>
</svg>
