<?xml version="1.0" encoding="utf-8"?>
<!-- Generator: Adobe Illustrator 18.0.0, SVG Export Plug-In . SVG Version: 6.00 Build 0)  -->
<!DOCTYPE svg PUBLIC "-//W3C//DTD SVG 1.1//EN" "http://www.w3.org/Graphics/SVG/1.1/DTD/svg11.dtd">
<svg version="1.1" xmlns="http://www.w3.org/2000/svg" xmlns:xlink="http://www.w3.org/1999/xlink" x="0px" y="0px"
	 viewBox="0 0 128 128" enable-background="new 0 0 128 128" xml:space="preserve">
<g id="present-screen">
	<path d="M120.156,0.38H7.846c-3.061,0-5.541,2.48-5.541,5.541v76.937c0,3.061,2.48,5.536,5.541,5.536h36.391l-27.099,29.974
		c-2.046,2.269-1.869,5.77,0.4,7.827c1.06,0.956,2.38,1.425,3.709,1.425c1.515,0,3.019-0.613,4.112-1.823l33.816-37.404h9.986
		l33.823,37.404c1.088,1.21,2.592,1.823,4.105,1.823c1.336,0,2.654-0.469,3.716-1.425c2.265-2.057,2.442-5.558,0.398-7.827
		L84.104,88.394h36.052c3.07,0,5.539-2.475,5.539-5.536V5.92C125.695,2.859,123.227,0.38,120.156,0.38z M114.618,77.32H13.384
		V11.459h101.234V77.32z"/>
</g>
<g id="present-graphline">
	<path d="M26.602,67.809c1.752,0,3.488-0.832,4.554-2.391l12.55-18.134l7.369,10.977c1.049,1.559,3.026,2.207,4.68,2.453
		c1.885-0.031,3.614-1.011,4.609-2.608l13.078-20.948l12.66,21.275c0.973,1.628,2.707,2.641,4.601,2.702
		c1.893,0.102,3.671-0.865,4.751-2.428l10.537-15.533c1.707-2.535,1.044-5.981-1.487-7.695c-2.521-1.725-5.972-1.053-7.688,1.473
		l-5.654,8.323L78.327,23.683c-0.982-1.657-2.77-2.681-4.689-2.705c-2.336,0.038-3.742,0.967-4.768,2.608L55.499,44.983
		l-7.131-10.625c-1.017-1.519-2.725-2.442-4.552-2.453c-0.022,0-0.035,0-0.044,0c-1.818,0-3.516,0.894-4.556,2.391L22.048,59.123
		c-1.74,2.515-1.115,5.965,1.407,7.702C24.419,67.49,25.509,67.809,26.602,67.809z"/>
</g>
</svg>
