<?xml version="1.0" encoding="utf-8"?>
<svg xmlns="http://www.w3.org/2000/svg" class="heartbeat" x="0px" y="0px" xmlns:xlink="http://www.w3.org/1999/xlink" viewBox="0 0 128 128" enable-background="new 0 0 128 128">
    <path d="M122.784,61.856H86.089c-1.873,0-3.538,1.168-4.158,2.939l-9.705,27.573L57.26,18.213c-0.393-1.95-2.061-3.402-4.053-3.514
	c-1.957-0.103-3.813,1.116-4.433,3.007L34.309,61.703H5.257c-2.42,0-4.398,1.957-4.398,4.398c0,2.421,1.978,4.398,4.398,4.398
	h32.248c1.887,0,3.573-1.22,4.175-3.024l10.255-31.207l14.827,73.486c0.393,1.942,2.044,3.376,4.001,3.522c0.104,0,0.206,0,0.31,0
	c1.856,0,3.52-1.168,4.158-2.937l13.967-39.686h33.585c2.441,0,4.398-1.974,4.398-4.398
	C127.182,63.815,125.225,61.856,122.784,61.856z"/>
</svg>
