<?xml version="1.0" encoding="utf-8"?>
<!-- Generator: Adobe Illustrator 18.0.0, SVG Export Plug-In . SVG Version: 6.00 Build 0)  -->
<!DOCTYPE svg PUBLIC "-//W3C//DTD SVG 1.1//EN" "http://www.w3.org/Graphics/SVG/1.1/DTD/svg11.dtd">
<svg version="1.1" xmlns="http://www.w3.org/2000/svg" xmlns:xlink="http://www.w3.org/1999/xlink" x="0px" y="0px"
	 viewBox="0 0 128 128" enable-background="new 0 0 128 128" xml:space="preserve">
<g id="trash-can">
	<path d="M121.021,19.837l-21.789-0.048l0.028-13.1c0-3.292-2.664-5.979-5.977-5.979L33.501,0.617c-3.284,0-5.977,2.676-5.977,5.979
		l-0.019,13.098L6.585,19.66c-3.294,0-5.977,2.676-5.977,5.968c0,3.313,2.655,5.987,5.958,5.987l10.408,0.014l-0.124,88.843
		c0,3.318,2.664,5.994,5.958,5.994l81.332,0.124c3.294,0,5.977-2.671,5.977-5.975l0.124-88.848l10.751,0.024
		c3.314,0,5.987-2.676,5.997-5.979C126.998,22.508,124.315,19.837,121.021,19.837z M39.469,12.597l47.827,0.06l-0.019,7.097
		l-47.817-0.06L39.469,12.597z M98.172,114.615l-69.358-0.095l0.114-82.614l69.358,0.096L98.172,114.615z"/>
</g>
<g id="trash-right-line">
	<path d="M75.838,101.914c3.313,0,5.987-2.664,5.987-5.982l0.086-49.197c0-3.314-2.674-5.989-5.977-5.989
		c-3.304-0.012-5.977,2.664-5.977,5.968L69.871,95.92C69.871,99.223,72.544,101.914,75.838,101.914z"/>
</g>
<g id="trash-left-line">
	<path d="M49.963,101.866c3.295,0.009,5.987-2.661,5.987-5.953l0.067-49.226c0.01-3.292-2.664-5.975-5.968-5.975
		c-3.304-0.012-5.977,2.659-5.987,5.963l-0.076,49.212C43.986,99.19,46.65,101.866,49.963,101.866z"/>
</g>
</svg>
