<?xml version="1.0" encoding="utf-8"?>
<!-- Generator: Adobe Illustrator 18.0.0, SVG Export Plug-In . SVG Version: 6.00 Build 0)  -->
<!DOCTYPE svg PUBLIC "-//W3C//DTD SVG 1.1//EN" "http://www.w3.org/Graphics/SVG/1.1/DTD/svg11.dtd">
<svg version="1.1" xmlns="http://www.w3.org/2000/svg" xmlns:xlink="http://www.w3.org/1999/xlink" x="0px" y="0px"
	 viewBox="0 0 128 128" enable-background="new 0 0 128 128" xml:space="preserve">
<g id="tack-head">
	<path d="M73.155,104.644c1.007,1.005,2.358,1.54,3.709,1.54c0.68,0,1.368-0.145,2.014-0.413c1.972-0.809,3.239-2.727,3.239-4.841
		V71.523l25.509-25.484l14.508-1.89c1.98-0.256,3.65-1.622,4.288-3.51c0.646-1.898,0.168-4.003-1.25-5.417L91.909,1.959
		c-1.426-1.416-3.524-1.905-5.421-1.25c-1.888,0.646-3.256,2.318-3.507,4.298L81.11,19.534l-25.5,25.477H26.224
		c-2.131,0-4.044,1.282-4.867,3.243c-0.806,1.972-0.352,4.227,1.15,5.723 M104.487,35.849c-1.149,0.155-2.215,0.667-3.037,1.489
		L73.155,65.635c-0.99,0.984-1.536,2.318-1.536,3.715v18.899L38.895,55.517h18.888c1.393,0,2.727-0.552,3.718-1.54l28.294-28.274
		c0.822-0.822,1.351-1.89,1.494-3.048l0.747-5.704l18.158,18.15L104.487,35.849z"/>
</g>
<g id="tack-point">
	<polyline points="44.902,75.746 1.31,126.839 52.118,82.987 	"/>
</g>
</svg>
