<?xml version="1.0" encoding="utf-8"?>
<!-- Generator: Adobe Illustrator 18.0.0, SVG Export Plug-In . SVG Version: 6.00 Build 0)  -->
<!DOCTYPE svg PUBLIC "-//W3C//DTD SVG 1.1//EN" "http://www.w3.org/Graphics/SVG/1.1/DTD/svg11.dtd">
<svg version="1.1" xmlns="http://www.w3.org/2000/svg" xmlns:xlink="http://www.w3.org/1999/xlink" x="0px" y="0px"
	 viewBox="0 0 128 128" enable-background="new 0 0 128 128" xml:space="preserve">
<g id="clock-hands">
	<path fill="#010101" d="M63.2,32.2c-2.5,0-4.5,2-4.5,4.5v23.7L47,73.7c-1.6,1.9-1.5,4.8,0.4,6.4c0.9,0.8,1.9,1.1,3,1.1
		c1.3,0,2.5-0.5,3.4-1.5l12.7-14.5c0.7-0.8,1.1-1.9,1.1-3V36.8C67.7,34.3,65.7,32.2,63.2,32.2z"/>
</g>
<g id="clock">
	<path fill="#010101" d="M120.8,32.8c0-5.3-1.6-10.4-4.6-14.6l1-0.8c2-1.5,2.4-4.4,0.8-6.4c-1.5-2-4.4-2.4-6.4-0.8l-2,1.6
		c-4.2-2.9-9.1-4.4-14.3-4.4c-6.8,0-13.2,2.6-18,7.5c-0.5,0.5-0.8,1.1-1.1,1.7c-4-1-8.1-1.6-12.4-1.6c-4.4,0-8.7,0.6-12.8,1.7
		c-0.2-0.7-0.6-1.3-1.1-1.8C45.2,10,38.8,7.4,32,7.4c-5.6,0-10.9,1.8-15.2,5.1l-2.9-2.3C11.9,8.7,9,9,7.5,11c-1.5,2-1.2,4.8,0.8,6.4
		l2.2,1.7c-2.6,4.1-4,8.8-4,13.7c0,6.8,2.7,13.2,7.5,18c0.5,0.5,1.1,0.8,1.7,1.1c-1.1,4.1-1.7,8.5-1.7,13c0,14.2,6,27,15.5,36.1
		l-12.4,12.4c-1.8,1.8-1.8,4.6,0,6.4c0.9,0.9,2,1.3,3.2,1.3s2.3-0.4,3.2-1.3l13.1-13.1c7.8,5.1,17.2,8.1,27.2,8.1
		c10,0,19.4-3,27.2-8.1l13.1,13.1c0.9,0.9,2.1,1.3,3.2,1.3s2.3-0.4,3.2-1.3c1.8-1.8,1.8-4.6,0-6.4L98.3,101
		c9.6-9.1,15.5-21.9,15.5-36.1c0-4.5-0.6-8.9-1.8-13.1c0.5-0.2,0.9-0.5,1.3-0.9C118.2,46,120.8,39.6,120.8,32.8z M15.6,32.8
		c0-4.4,1.7-8.5,4.8-11.6c3.1-3.1,7.2-4.8,11.6-4.8c3.7,0,7.3,1.2,10.1,3.5c-10,4.9-18.2,13-23.1,23C16.8,40,15.6,36.5,15.6,32.8z
		 M63.9,105.7C41.4,105.7,23,87.4,23,64.9c0-22.5,18.3-40.8,40.8-40.8c22.5,0,40.8,18.3,40.8,40.8C104.7,87.4,86.4,105.7,63.9,105.7
		z M85.4,19.8c2.9-2.2,6.3-3.4,10-3.4c3.9,0,7.5,1.3,10.5,3.8c0,0.1,0.1,0.1,0.1,0.2c0.3,0.4,0.8,0.8,1.2,1.1
		c3,3.1,4.6,7.1,4.6,11.4c0,3.6-1.1,6.9-3.2,9.7C103.5,32.7,95.4,24.6,85.4,19.8z"/>
</g>
</svg>
