<?xml version="1.0" encoding="utf-8"?>
<svg xmlns="http://www.w3.org/2000/svg" x="0px" y="0px" xmlns:xlink="http://www.w3.org/1999/xlink" viewBox="-14 -14 128 128" enable-background="new -14 -14 128 128">
    <g class="arrow-down-tail">
        <path d="M-7.034,44.503h32.487V-10.11c0-2.146,1.777-3.89,3.967-3.89h42.403c2.197,0,3.971,1.743,3.971,3.89v54.612h32.483"/>
    </g>
    <g class="arrow-down-head">
        <path d="M107.277,43.802c1.571,0,2.997,0.904,3.63,2.311c0.635,1.403,0.371,3.042-0.682,4.18l-57.653,62.429
		c-0.756,0.815-1.825,1.278-2.946,1.278c-1.121,0-2.191-0.463-2.945-1.278l-57.653-62.424c-1.053-1.137-1.323-2.776-0.686-4.178
		c0.639-1.404,2.059-2.315,3.625-2.315"/>
    </g>
    <g class="arrow-down-fill">
        <path fill="#FFFFFF" d="M0.91,52.579l48.715,52.74l48.714-52.745H70.823c-2.187,0-3.964-1.74-3.964-3.888V-5.923H32.388v54.616
		c0,2.145-1.774,3.885-3.968,3.885H0.91z"/>
    </g>
</svg>
