<?xml version="1.0" encoding="utf-8"?>
<!-- Generator: Adobe Illustrator 18.0.0, SVG Export Plug-In . SVG Version: 6.00 Build 0)  -->
<!DOCTYPE svg PUBLIC "-//W3C//DTD SVG 1.1//EN" "http://www.w3.org/Graphics/SVG/1.1/DTD/svg11.dtd">
<svg version="1.1" xmlns="http://www.w3.org/2000/svg" xmlns:xlink="http://www.w3.org/1999/xlink" x="0px" y="0px"
	 viewBox="0 0 128 128" style="enable-background:new 0 0 128 128;" xml:space="preserve">
<g id="mobile-devices-home-left">
	<g>
		<path d="M48.583,103.626c-3.167,0-5.744,2.577-5.744,5.744s2.577,5.744,5.744,5.744s5.744-2.577,5.744-5.744
			S51.75,103.626,48.583,103.626z"/>
	</g>
</g>
<g id="mobile-devices-outline-left">
	<g>
		<path d="M87.896,2.535H9.27c-4.2,0-7.616,3.417-7.616,7.616v108.58c0,4.199,3.417,7.616,7.616,7.616h52.418
			c2.135,0,3.872-1.737,3.872-3.872s-1.737-3.872-3.872-3.872H9.397V10.279h78.371v18.592c0,2.135,1.737,3.872,3.872,3.872
			s3.872-1.737,3.872-3.872v-18.72C95.513,5.951,92.096,2.535,87.896,2.535z"/>
	</g>
</g>
<g id="mobile-devices-home-right">
	<g>
		<path d="M97.257,103.626c-3.167,0-5.744,2.577-5.744,5.744s2.577,5.744,5.744,5.744s5.744-2.577,5.744-5.744
			S100.424,103.626,97.257,103.626z"/>
	</g>
</g>
<g id="mobile-devices-outline-right">
	<g>
		<path d="M117.85,36.231H76.664c-4.199,0-7.616,3.417-7.616,7.616v74.883c0,4.199,3.417,7.616,7.616,7.616h41.186
			c4.199,0,7.616-3.417,7.616-7.616V43.848C125.466,39.648,122.049,36.231,117.85,36.231z M117.722,43.976v74.627h-40.93V43.976
			H117.722z"/>
	</g>
</g>
</svg>
