<?xml version="1.0" encoding="utf-8"?>
<svg xmlns="http://www.w3.org/2000/svg" x="0px" y="0px" xmlns:xlink="http://www.w3.org/1999/xlink" viewBox="0 0 128 128" enable-background="new 0 0 128 128">
    <g class="sun-thin-circle">
        <path d="M63.801,42.502c-11.666,0-21.155,9.489-21.155,21.158c0,11.666,9.489,21.155,21.155,21.155
		c11.669,0,21.158-9.489,21.158-21.155C84.959,51.991,75.47,42.502,63.801,42.502z M63.801,75.666
		c-6.621,0-12.006-5.385-12.006-12.006c0-6.631,5.386-12.01,12.006-12.01c6.62,0,12.009,5.378,12.009,12.01
		C75.81,70.281,70.421,75.666,63.801,75.666z"/>
    </g>
    <g class="sun-thin-ray12">
        <path d="M42.648,17.855c-1.261-2.18-4.049-2.93-6.248-1.67c-2.187,1.26-2.937,4.064-1.67,6.244l10.221,17.728
		c0.84,1.463,2.376,2.285,3.959,2.285c0.778,0,1.564-0.196,2.285-0.616c2.191-1.261,2.941-4.067,1.673-6.244L42.648,17.855z"/>
    </g>
    <g class="sun-thin-ray11">
        <path d="M18.004,42.502l17.71,10.221c0.724,0.413,1.51,0.609,2.285,0.609c1.572,0,3.118-0.822,3.959-2.285
		c1.268-2.18,0.518-4.987-1.67-6.248L22.582,34.578c-2.18-1.242-4.987-0.507-6.248,1.673C15.067,38.446,15.817,41.234,18.004,42.502
		z"/>
    </g>
    <g class="sun-thin-ray10">
        <path d="M38.59,63.66c0-2.539-2.046-4.574-4.574-4.574H5.766c-2.528,0-4.574,2.036-4.574,4.574c0,2.517,2.046,4.574,4.574,4.574
		h28.25C36.544,68.235,38.59,66.177,38.59,63.66z"/>
    </g>
    <g class="sun-thin-ray9">
        <path d="M41.958,76.275c-1.249-2.198-4.056-2.948-6.244-1.68l-17.71,10.22c-2.187,1.268-2.937,4.057-1.67,6.255
		c0.84,1.463,2.387,2.286,3.959,2.286c0.779,0,1.565-0.196,2.289-0.616l17.707-10.22C42.476,81.258,43.226,78.455,41.958,76.275z"/>
    </g>
    <g class="sun-thin-ray8">
        <path d="M51.205,85.485c-2.151-1.242-4.976-0.518-6.244,1.67l-10.239,17.728c-1.268,2.177-0.518,4.983,1.67,6.244
		c0.714,0.42,1.511,0.616,2.289,0.616c1.572,0,3.107-0.822,3.955-2.285l10.239-17.728C54.145,89.549,53.396,86.745,51.205,85.485z"/>
    </g>
    <g class="sun-thin-ray7">
        <path d="M63.801,88.871c-2.528,0-4.574,2.053-4.574,4.574v28.267c0,2.521,2.046,4.574,4.574,4.574c2.528,0,4.574-2.053,4.574-4.574
		V93.446C68.375,90.925,66.329,88.871,63.801,88.871z"/>
    </g>
    <g class="sun-thin-ray6">
        <path d="M82.663,87.155c-1.261-2.18-4.049-2.93-6.248-1.67c-2.187,1.26-2.937,4.064-1.67,6.244l10.221,17.728
		c0.84,1.463,2.376,2.285,3.959,2.285c0.778,0,1.564-0.196,2.285-0.616c2.191-1.261,2.941-4.067,1.673-6.244L82.663,87.155z"/>
    </g>
    <g class="sun-thin-ray5">
        <path d="M109.598,84.815l-17.707-10.22c-2.18-1.249-4.987-0.5-6.244,1.68c-1.271,2.18-0.518,4.983,1.67,6.244l17.707,10.22
		c0.724,0.42,1.51,0.616,2.289,0.616c1.572,0,3.118-0.822,3.955-2.286C112.539,88.871,111.785,86.082,109.598,84.815z"/>
    </g>
    <g class="sun-thin-ray4">
        <path d="M121.857,59.086H93.59c-2.528,0-4.574,2.036-4.574,4.574c0,2.517,2.046,4.574,4.574,4.574h28.267
		c2.528,0,4.574-2.057,4.574-4.574C126.431,61.122,124.385,59.086,121.857,59.086z"/>
    </g>
    <g class="sun-thin-ray3">
        <path d="M85.647,51.046c0.837,1.463,2.383,2.285,3.955,2.285c0.778,0,1.565-0.196,2.289-0.609l17.707-10.221
		c2.187-1.268,2.941-4.056,1.67-6.251c-1.257-2.198-4.064-2.934-6.244-1.673L87.317,44.798
		C85.129,46.059,84.376,48.866,85.647,51.046z"/>
    </g>
    <g class="sun-thin-ray2">
        <path d="M76.415,41.814c0.724,0.42,1.51,0.619,2.289,0.619c1.572,0,3.118-0.822,3.959-2.289l10.22-17.707
		c1.268-2.18,0.518-4.987-1.673-6.244c-2.17-1.253-4.984-0.518-6.244,1.67L74.746,35.57C73.478,37.751,74.228,40.557,76.415,41.814z
		"/>
    </g>
    <g class="sun-thin-ray1">
        <path d="M63.801,38.446c2.528,0,4.574-2.053,4.574-4.574V5.604c0-2.517-2.046-4.574-4.574-4.574c-2.528,0-4.574,2.057-4.574,4.574
		v28.268C59.227,36.392,61.273,38.446,63.801,38.446z"/>
    </g>
</svg>
