<?xml version="1.0" encoding="utf-8"?>
<svg xmlns="http://www.w3.org/2000/svg" x="0px" y="0px" xmlns:xlink="http://www.w3.org/1999/xlink" viewBox="0 0 128 128" enable-background="new 0 0 128 128">
    <g class="circle-arrow-bottom">
        <path d="M126.251,84.318l-10.491-17.694c-0.592-1.011-1.595-1.716-2.748-1.941c-1.155-0.225-2.35,0.066-3.279,0.777L92.876,78.429
		c-1.796,1.381-2.132,3.958-0.754,5.755c1.38,1.801,3.959,2.127,5.755,0.75l8.327-6.408c-6.315,17.683-23.293,30.187-42.675,30.187
		c-21.119,0-39.266-14.327-44.132-34.843c-0.521-2.206-2.711-3.576-4.938-3.047c-2.202,0.521-3.568,2.732-3.047,4.938
		c5.741,24.233,27.173,41.159,52.116,41.159c23.247,0,43.63-15.21,50.797-36.628l4.871,8.209c0.764,1.295,2.134,2.012,3.527,2.012
		c0.714,0,1.437-0.185,2.093-0.574C126.764,88.784,127.414,86.265,126.251,84.318z"/>
    </g>
    <g class="circle-arrow-top">
        <path d="M14.58,62.199c0.257,0.049,0.521,0.072,0.778,0.072c0.898,0,1.778-0.297,2.501-0.85l16.855-12.966
		c1.796-1.385,2.132-3.963,0.754-5.756c-1.388-1.814-3.967-2.137-5.756-0.754l-8.312,6.396c6.318-17.68,23.286-30.175,42.66-30.175
		c21.121,0,39.268,14.33,44.133,34.843c0.521,2.206,2.709,3.584,4.938,3.047c2.201-0.521,3.566-2.732,3.045-4.938
		C110.436,26.884,89.006,9.959,64.061,9.959c-23.255,0-43.63,15.218-50.787,36.647l-4.88-8.225
		c-1.154-1.955-3.674-2.583-5.619-1.437c-1.95,1.157-2.597,3.674-1.434,5.623l10.492,17.693
		C12.425,61.268,13.426,61.975,14.58,62.199z"/>
    </g>
</svg>
