<?xml version="1.0" encoding="utf-8"?>
<!-- Generator: Adobe Illustrator 18.0.0, SVG Export Plug-In . SVG Version: 6.00 Build 0)  -->
<!DOCTYPE svg PUBLIC "-//W3C//DTD SVG 1.1//EN" "http://www.w3.org/Graphics/SVG/1.1/DTD/svg11.dtd">
<svg version="1.1" xmlns="http://www.w3.org/2000/svg" xmlns:xlink="http://www.w3.org/1999/xlink" x="0px" y="0px"
	 viewBox="0 0 128 128" style="enable-background:new 0 0 128 128;" xml:space="preserve">
<g id="clipboard-line4">
	<path d="M85.493,89.481H42.826c-1.891,0-3.429,1.538-3.429,3.429c0,1.891,1.538,3.429,3.429,3.429h42.667
		c1.891,0,3.429-1.538,3.429-3.429C88.922,91.019,87.384,89.481,85.493,89.481z"/>
</g>
<g id="clipboard-line3">
	<path d="M85.493,73.965H42.826c-1.891,0-3.429,1.539-3.429,3.43c0,1.891,1.538,3.429,3.429,3.429h42.667
		c1.891,0,3.429-1.538,3.429-3.429C88.922,75.504,87.384,73.965,85.493,73.965z"/>
</g>
<g id="clipboard-line2">
	<path d="M85.493,58.45H42.826c-1.891,0-3.429,1.538-3.429,3.429s1.538,3.429,3.429,3.429h42.667c1.891,0,3.429-1.538,3.429-3.429
		S87.384,58.45,85.493,58.45z"/>
</g>
<g id="clipboard-line1">
	<path d="M85.493,42.935H42.826c-1.891,0-3.429,1.538-3.429,3.429c0,1.891,1.538,3.429,3.429,3.429h42.667
		c1.891,0,3.429-1.538,3.429-3.429C88.922,44.473,87.384,42.935,85.493,42.935z"/>
</g>
<g id="clipboard-clip">
	<path d="M89.372,0.268H38.947c-1.891,0-3.429,1.538-3.429,3.429v17.455c0,5.531,3.716,9.247,9.247,9.247h38.789
		c5.531,0,9.246-3.716,9.246-9.247V3.697C92.8,1.806,91.262,0.268,89.372,0.268z M85.943,7.125v14.026
		c0,1.741-0.648,2.389-2.389,2.389H44.765c-1.742,0-2.39-0.648-2.39-2.389V7.125H85.943z"/>
</g>
<g id="clipboard-inline">
	<path d="M104.887,15.783H97.13c-1.891,0-3.429,1.538-3.429,3.429c0,1.891,1.538,3.429,3.429,3.429h4.328v86.235H26.861V22.641
		h4.329c1.891,0,3.429-1.538,3.429-3.429c0-1.89-1.538-3.429-3.429-3.429h-7.758c-1.89,0-3.429,1.538-3.429,3.429v93.092
		c0,1.891,1.538,3.429,3.429,3.429h81.456c1.891,0,3.429-1.538,3.429-3.429V19.212C108.316,17.321,106.778,15.783,104.887,15.783z"
		/>
</g>
<g id="clipboard-outline">
	<path d="M112.644,4.147H97.13c-1.891,0-3.429,1.538-3.429,3.429c0,1.891,1.538,3.429,3.429,3.429h15.515
		c0.392,0,0.451,0.059,0.451,0.45v108.607c0,0.392-0.059,0.451-0.451,0.451h-96.97c-0.391,0-0.45-0.059-0.45-0.451V11.454
		c0-0.391,0.059-0.45,0.45-0.45H31.19c1.891,0,3.429-1.538,3.429-3.429c0-1.89-1.538-3.429-3.429-3.429H15.674
		c-4.166,0-7.308,3.142-7.308,7.308v108.607c0,4.166,3.142,7.308,7.308,7.308h96.97c4.166,0,7.308-3.142,7.308-7.308V11.454
		C119.952,7.288,116.811,4.147,112.644,4.147z"/>
</g>
</svg>
