<?xml version="1.0" encoding="utf-8"?>
<!-- Generator: Adobe Illustrator 18.0.0, SVG Export Plug-In . SVG Version: 6.00 Build 0)  -->
<!DOCTYPE svg PUBLIC "-//W3C//DTD SVG 1.1//EN" "http://www.w3.org/Graphics/SVG/1.1/DTD/svg11.dtd">
<svg version="1.1" xmlns="http://www.w3.org/2000/svg" xmlns:xlink="http://www.w3.org/1999/xlink" x="0px" y="0px"
	 viewBox="0 0 128 128" style="enable-background:new 0 0 128 128;" xml:space="preserve">
<g id="cloud-snowy-outline">
	<g>
		<path d="M101.896,36.208c-0.912,0-1.83,0.062-2.79,0.185c-5.483-13.847-18.619-22.927-33.675-22.927
			c-12.995,0-25.015,7.073-31.48,18.266C16.232,27.763,0.809,41.654,0.809,58.694c0,15.219,12.373,27.601,27.588,27.601h5.337
			c0.164-1.568,0.55-3.114,1.429-4.493c-0.632-0.97-1.062-2.029-1.337-3.118h-5.428c-11.015,0-19.977-8.966-19.977-19.989
			c0-11.019,8.963-19.982,19.977-19.982c1.978,0,4.045,0.368,6.304,1.122c1.813,0.606,3.841-0.255,4.662-2.006
			c4.713-10.176,14.943-16.75,26.068-16.75c11.653,0,21.779,6.934,26.272,17.518c-2.851,1.356-6.674,3.738-9.653,7.793
			c-1.246,1.696-0.887,4.077,0.809,5.322c0.675,0.499,1.465,0.74,2.255,0.74c1.167,0,2.316-0.535,3.064-1.55
			c3.605-4.901,9.294-6.437,9.355-6.451l0.006-0.005c1.659-0.427,3.045-0.629,4.358-0.629c9.598,0,17.421,7.82,17.421,17.433
			c0,9.615-7.823,17.433-17.421,17.433h-7.945c0.517,2.602-0.049,5.298-1.508,7.612h9.452c13.798,0,25.032-11.235,25.032-25.045
			C126.928,47.441,115.694,36.208,101.896,36.208z"/>
	</g>
</g>
<g id="cloud-snowy-flake3">
	<g>
		<path d="M73.801,95.916c-1.428-1.418-3.732-1.418-5.142,0l-3.124,3.115l-3.106-3.115c-1.43-1.418-3.719-1.418-5.147,0
			c-1.428,1.424-1.428,3.725,0,5.144l3.109,3.114l-3.052,3.056c-1.422,1.418-1.422,3.72,0,5.142c0.717,0.71,1.638,1.062,2.574,1.062
			c0.921,0,1.857-0.353,2.576-1.062l3.045-3.054l3.064,3.054c0.711,0.71,1.635,1.062,2.571,1.062c0.918,0,1.86-0.353,2.571-1.062
			c1.41-1.422,1.41-3.725,0-5.142l-3.064-3.056l3.124-3.114C75.211,99.641,75.211,97.34,73.801,95.916z"/>
	</g>
</g>
<g id="cloud-snowy-flake2">
	<g>
		<path d="M58.694,86.295c-0.17-0.532-0.431-1.036-0.845-1.46l-3.064-3.055l3.106-3.097l0.012-0.014
			c1.416-1.419,1.416-3.723,0-5.144c-0.711-0.71-1.647-1.067-2.568-1.067c-0.939,0-1.875,0.357-2.574,1.067l-3.121,3.111
			l-3.109-3.111c-0.711-0.71-1.647-1.067-2.568-1.067c-0.939,0-1.875,0.357-2.571,1.067c-1.429,1.421-1.429,3.725,0,5.144
			l0.015,0.014l3.088,3.097l-3.045,3.055c-0.425,0.424-0.681,0.928-0.854,1.46c-0.41,1.255-0.149,2.682,0.854,3.682
			c0.711,0.711,1.635,1.067,2.571,1.067c0.924,0,1.86-0.356,2.574-1.067l3.046-3.053l3.061,3.053
			c0.714,0.711,1.638,1.067,2.571,1.067c0.924,0,1.86-0.356,2.578-1.067C58.843,88.977,59.095,87.55,58.694,86.295z"/>
	</g>
</g>
<g id="cloud-snowy-flake1">
	<g>
		<path d="M86.347,66.879c-0.717-0.711-1.635-1.068-2.577-1.068c-0.93,0-1.854,0.357-2.571,1.068l-3.106,3.109l-3.118-3.109
			c-0.711-0.711-1.635-1.068-2.571-1.068c-0.924,0-1.86,0.357-2.577,1.068c-1.404,1.418-1.404,3.719,0,5.143l3.124,3.111
			l-3.057,3.054c-0.152,0.149-0.219,0.335-0.328,0.497c-1.009,1.421-0.936,3.375,0.328,4.646c0.711,0.71,1.647,1.068,2.571,1.068
			c0.936,0,1.854-0.359,2.565-1.068l3.064-3.055l3.051,3.055c0.711,0.71,1.647,1.068,2.571,1.068c0.936,0,1.854-0.359,2.571-1.068
			c1.276-1.27,1.343-3.225,0.334-4.646c-0.122-0.162-0.189-0.348-0.334-0.497l-3.045-3.054l3.106-3.111
			C87.769,70.598,87.769,68.297,86.347,66.879z"/>
	</g>
</g>
</svg>
