<?xml version="1.0" encoding="utf-8"?>
<!-- Generator: Adobe Illustrator 18.0.0, SVG Export Plug-In . SVG Version: 6.00 Build 0)  -->
<!DOCTYPE svg PUBLIC "-//W3C//DTD SVG 1.1//EN" "http://www.w3.org/Graphics/SVG/1.1/DTD/svg11.dtd">
<svg version="1.1" xmlns="http://www.w3.org/2000/svg" xmlns:xlink="http://www.w3.org/1999/xlink" x="0px" y="0px"
	 viewBox="0 0 128 128" style="enable-background:new 0 0 128 128;" xml:space="preserve">
<g id="download-bar">
	<path d="M106.917,117.045H19.721c-2.907,0-5.26,2.34-5.26,5.26c0,2.897,2.352,5.262,5.26,5.262h87.197
		c2.909,0,5.262-2.365,5.262-5.262C112.179,119.385,109.827,117.045,106.917,117.045z"/>
</g>
<g id="download-arrow">
	<path d="M59.41,104.693c0.966,1.101,2.332,1.819,3.905,1.819c0.015,0,0.031-0.011,0.046-0.011c0.015,0,0.031,0.011,0.046,0.011
		c1.347,0,2.691-0.513,3.72-1.542l43.51-43.51c2.055-2.054,2.055-5.384,0-7.438c-2.054-2.056-5.384-2.056-7.44,0L68.575,88.649
		V5.456c0-2.907-2.353-5.258-5.26-5.258c-2.907,0-5.26,2.351-5.26,5.258v83.048l-34.62-34.481c-2.059-2.056-5.392-2.023-7.443,0.021
		c-2.05,2.056-2.04,5.384,0.017,7.436L59.41,104.693z"/>
</g>
</svg>
