<?xml version="1.0" encoding="utf-8"?>
<svg xmlns="http://www.w3.org/2000/svg" x="0px" y="0px" xmlns:xlink="http://www.w3.org/1999/xlink" viewBox="0 0 128 128" enable-background="new 0 0 128 128">
    <g class="pin-outer">
        <path d="M63.157,1.031c-22.039,0-39.905,17.866-39.905,39.905c0,35.188,39.905,43.777,39.905,86.34
		c0-42.564,39.905-51.152,39.905-86.34C103.062,18.897,85.196,1.031,63.157,1.031z M63.157,92.794
		c-4.245-7.237-9.405-13.35-14.274-19.127c-9.135-10.82-16.344-19.362-16.344-32.73c0-16.888,13.732-30.618,30.618-30.618
		c16.886,0,30.618,13.73,30.618,30.618c0,13.368-7.21,21.91-16.342,32.73C72.562,79.444,67.402,85.556,63.157,92.794z"/>
    </g>
    <g class="pin-center">
        <path d="M63.157,25.961c-5.713,0-10.338,4.627-10.338,10.34c0,5.722,4.625,10.348,10.338,10.348
		c5.722,0,10.348-4.625,10.348-10.348C73.505,30.588,68.88,25.961,63.157,25.961z"/>
    </g>
</svg>
