<?xml version="1.0" encoding="utf-8"?>
<!-- Generator: Adobe Illustrator 18.0.0, SVG Export Plug-In . SVG Version: 6.00 Build 0)  -->
<!DOCTYPE svg PUBLIC "-//W3C//DTD SVG 1.1//EN" "http://www.w3.org/Graphics/SVG/1.1/DTD/svg11.dtd">
<svg version="1.1" xmlns="http://www.w3.org/2000/svg" xmlns:xlink="http://www.w3.org/1999/xlink" x="0px" y="0px"
	 viewBox="0 0 128 128" style="enable-background:new 0 0 128 128;" xml:space="preserve">
<g id="document-outline">
	<path d="M111.215,31.523L82.025,2.52c-0.996-0.994-2.341-1.544-3.752-1.544H20.059c-2.92,0-5.303,2.374-5.303,5.307v115.647
		c0,2.944,2.382,5.307,5.303,5.307h87.403c2.941,0,5.307-2.363,5.307-5.307V35.295C112.77,33.876,112.207,32.517,111.215,31.523z
		 M102.156,116.622H25.371V11.59h50.725l26.06,25.903V116.622z"/>
</g>
<g id="document-line5">
	<path d="M90.025,94.791h-53.07c-2.92,0-5.307,2.374-5.307,5.307c0,2.935,2.387,5.307,5.307,5.307h53.07
		c2.925,0,5.307-2.372,5.307-5.307C95.332,97.165,92.949,94.791,90.025,94.791z"/>
</g>
<g id="document-line4">
	<path d="M90.025,76.881h-53.07c-2.92,0-5.307,2.374-5.307,5.307c0,2.933,2.387,5.307,5.307,5.307h53.07
		c2.925,0,5.307-2.374,5.307-5.307C95.332,79.255,92.949,76.881,90.025,76.881z"/>
</g>
<g id="document-line3">
	<path d="M90.025,58.97h-53.07c-2.92,0-5.307,2.374-5.307,5.307c0,2.933,2.387,5.307,5.307,5.307h53.07
		c2.925,0,5.307-2.374,5.307-5.307C95.332,61.344,92.949,58.97,90.025,58.97z"/>
</g>
<g id="document-line2">
	<path d="M31.648,46.367c0,2.933,2.387,5.307,5.307,5.307h53.07c2.925,0,5.307-2.374,5.307-5.307c0-2.935-2.382-5.307-5.307-5.307
		h-53.07C34.035,41.06,31.648,43.432,31.648,46.367z"/>
</g>
<g id="document-line1">
	<path d="M36.955,33.429h28.527c2.925,0,5.307-2.372,5.307-5.307c0-2.933-2.382-5.307-5.307-5.307H36.955
		c-2.92,0-5.307,2.374-5.307,5.307C31.648,31.057,34.035,33.429,36.955,33.429z"/>
</g>
</svg>
