<?xml version="1.0" encoding="utf-8"?>
<svg xmlns="http://www.w3.org/2000/svg" x="0px" y="0px" xmlns:xlink="http://www.w3.org/1999/xlink" viewBox="0 0 128 128" enable-background="new 0 0 128 128">
    <g class="battery-outline">
        <path d="M121.687,43.225h-4.276V31.599c0-2.999-2.436-5.447-5.447-5.447H6.342c-3.01,0-5.447,2.447-5.447,5.447v62.933
		c0,3.01,2.437,5.447,5.447,5.447h105.622c3.01,0,5.447-2.437,5.447-5.447V83.363h4.276c3.01,0,5.447-2.426,5.447-5.447V48.672
		C127.134,45.662,124.697,43.225,121.687,43.225z M106.518,89.085H11.789v-52.04h94.729v11.626v29.244V89.085z"/>
    </g>
    <g class="battery-line1">
        <rect width="17.053" height="42.093" x="17.011" y="42.013"/>
    </g>
    <g class="battery-line2" display="none">
        <rect width="17.053" height="42.093" x="39.152" y="42.019" display="inline"/>
    </g>
    <g class="battery-line3" display="none">
        <rect width="17.053" height="42.093" x="60.998" y="42.019" display="inline"/>
    </g>
    <g class="battery-line4" display="none">
        <rect width="17.053" height="42.093" x="83.723" y="42.013" display="inline"/>
    </g>
</svg>
