<?xml version="1.0" encoding="utf-8"?>
<!-- Generator: Adobe Illustrator 18.0.0, SVG Export Plug-In . SVG Version: 6.00 Build 0)  -->
<!DOCTYPE svg PUBLIC "-//W3C//DTD SVG 1.1//EN" "http://www.w3.org/Graphics/SVG/1.1/DTD/svg11.dtd">
<svg version="1.1" id="search" xmlns="http://www.w3.org/2000/svg" xmlns:xlink="http://www.w3.org/1999/xlink" x="0px" y="0px"
	 viewBox="0 0 128 128" enable-background="new 0 0 128 128" xml:space="preserve">
<path d="M124.552,118.275L96.074,89.798c8.422-9.502,13.698-21.849,13.698-35.515c0-29.678-24.148-53.821-53.825-53.821
	c-29.678,0-53.823,24.143-53.823,53.821c0,29.669,24.145,53.812,53.823,53.812c12.163,0,23.262-4.207,32.288-11.03l28.758,28.766
	c1.048,1.046,2.412,1.567,3.78,1.567c1.37,0,2.738-0.521,3.78-1.567C126.641,123.746,126.641,120.363,124.552,118.275z
	 M12.815,54.283c0-23.781,19.35-43.132,43.132-43.132c23.787,0,43.134,19.351,43.134,43.132c0,23.782-19.348,43.121-43.134,43.121
	C32.165,97.404,12.815,78.065,12.815,54.283z"/>
</svg>
