<?xml version="1.0" encoding="utf-8"?>
<svg xmlns="http://www.w3.org/2000/svg" class="cancel" x="0px" y="0px" xmlns:xlink="http://www.w3.org/1999/xlink" viewBox="0 0 128 128" enable-background="new 0 0 128 128">
    <path d="M72.282,64.867l40.057-40.057c2.299-2.299,2.299-6.018,0-8.313c-2.294-2.299-6.014-2.299-8.313,0L63.97,56.554
	L23.908,16.497c-2.295-2.299-6.018-2.299-8.313,0c-2.295,2.295-2.295,6.014,0,8.313l40.061,40.057l-40.061,40.061
	c-2.295,2.295-2.295,6.018,0,8.313c1.15,1.15,2.653,1.722,4.156,1.722c1.504,0,3.007-0.572,4.157-1.722L63.97,73.18l40.057,40.062
	c1.15,1.15,2.653,1.722,4.156,1.722c1.509,0,3.012-0.572,4.157-1.722c2.299-2.295,2.299-6.018,0-8.313L72.282,64.867z"/>
</svg>
