<?xml version="1.0" encoding="utf-8"?>
<svg xmlns="http://www.w3.org/2000/svg" x="0px" y="0px" xmlns:xlink="http://www.w3.org/1999/xlink" viewBox="-77 51 128 128" enable-background="new -77 51 128 128">
    <g class="clouduparrow">
        <path d="M-1.2,133.451l-12.676-13.21c-0.11-0.114-0.234-0.22-0.363-0.312c-0.058-0.04-0.12-0.067-0.18-0.1
		c-0.076-0.045-0.152-0.094-0.235-0.131c-0.075-0.032-0.158-0.054-0.236-0.076c-0.07-0.021-0.137-0.051-0.208-0.063
		c-0.179-0.043-0.355-0.051-0.542-0.045c-0.633-0.021-1.272,0.214-1.76,0.722l-12.677,13.213c-0.932,0.973-0.932,2.549,0,3.52
		c0.466,0.484,1.08,0.73,1.691,0.73c0.611,0,1.223-0.246,1.691-0.73l8.74-9.11v37.729c0,1.374,1.071,2.491,2.39,2.491
		c1.32,0,2.39-1.118,2.39-2.491v-37.571l8.592,8.958c0.47,0.486,1.081,0.73,1.691,0.73c0.617,0,1.226-0.245,1.691-0.73
		C-0.265,136-0.265,134.426-1.2,133.451z"/>
    </g>
    <g class="cloudupcloud">
        <g class="cloudupdimple">
            <path d="M32.682,100.399c-1.981,0-3.581-1.675-3.581-3.733c0-9.671-7.549-17.533-16.827-17.533c-1.981,0-3.587-1.674-3.587-3.737
			c0-2.064,1.606-3.734,3.587-3.734c13.23,0,23.997,11.215,23.997,25.008C36.268,98.729,34.662,100.399,32.682,100.399z"/>
        </g>
        <g class="cloudupoutline">
            <path d="M13.062,135.849c-1.981,0-3.584-1.674-3.584-3.736c0-2.062,1.606-3.739,3.584-3.739c16.784,0,30.435-14.225,30.435-31.708
			c0-17.492-13.651-31.717-30.435-31.717c-5.906,0-11.644,1.773-16.586,5.131c-1.47,0.997-3.413,0.739-4.599-0.601
			c-2.535-2.881-6.139-4.529-9.884-4.529c-6.937,0-12.815,5.644-13.375,12.84c-0.089,1.19-0.721,2.257-1.695,2.882
			c-0.971,0.625-2.173,0.725-3.233,0.276c-2.834-1.206-5.836-1.817-8.912-1.817c-13.029,0-23.625,11.044-23.625,24.619
			c0,13.478,10.52,24.522,23.451,24.616c1.983,0.018,3.573,1.701,3.557,3.764c-0.015,2.056-1.617,3.71-3.584,3.71
			c-0.008,0-0.017,0-0.028,0c-16.856-0.128-30.568-14.524-30.568-32.094c0-17.693,13.813-32.092,30.8-32.092
			c2.565,0,5.089,0.324,7.536,0.971c2.614-8.78,10.542-15.143,19.673-15.143c4.752,0,9.354,1.725,12.999,4.82
			c5.529-3.164,11.718-4.82,18.072-4.82c20.736,0,37.604,17.578,37.604,39.186C50.667,118.27,33.798,135.849,13.062,135.849z"/>
        </g>
    </g>
</svg>
