<?xml version="1.0" encoding="utf-8"?>
<!-- Generator: Adobe Illustrator 18.0.0, SVG Export Plug-In . SVG Version: 6.00 Build 0)  -->
<!DOCTYPE svg PUBLIC "-//W3C//DTD SVG 1.1//EN" "http://www.w3.org/Graphics/SVG/1.1/DTD/svg11.dtd">
<svg version="1.1" xmlns="http://www.w3.org/2000/svg" xmlns:xlink="http://www.w3.org/1999/xlink" x="0px" y="0px"
	 viewBox="0 0 128 128" style="enable-background:new 0 0 128 128;" xml:space="preserve">
<g id="battery-spark-outline">
	<path d="M79.074,44.206h-6.351l0.023-2.75c0.006-1.029-0.393-2.022-1.113-2.754c-0.717-0.733-1.7-1.148-2.728-1.156l-7.9-0.068
		v-8.073c0-2.148-1.73-3.872-3.869-3.872h-6.813c-2.139,0-3.871,1.723-3.871,3.872v7.954l-7.787-0.063c-0.006,0-0.022,0-0.029,0
		c-2.124,0-3.849,1.711-3.872,3.842l-0.029,3.068h-6.359c-2.139,0-3.871,1.739-3.871,3.87v75.3c0,2.132,1.731,3.869,3.871,3.869
		h50.699c2.139,0,3.869-1.737,3.869-3.869v-75.3C82.943,45.944,81.214,44.206,79.074,44.206z M68.816,52.075"/>
</g>
<g id="battery-spark-fill3">
	<rect x="32.246" y="110.251" style="fill:#FFFFFF;" width="42.957" height="8.059"/>
</g>
<g id="battery-spark-fill2">
	<rect x="32.246" y="96.858" style="fill:#FFFFFF;" width="42.957" height="6.849"/>
</g>
<g id="battery-spark-fill1">
	<path style="fill:#FFFFFF;" d="M68.814,53.151c0.219,0,0.406-0.09,0.618-0.127h5.77v37.163H32.246V53.024h21.417l15.12,0.127
		C68.792,53.151,68.805,53.151,68.814,53.151"/>
</g>
<g id="battery-spark-zap2">
	<path d="M99.825,25.532H71.921c-2.139,0-3.869,1.723-3.869,3.872c0,2.131,1.729,3.869,3.869,3.869h27.905
		c2.141,0,3.872-1.738,3.872-3.869C103.697,27.255,101.966,25.532,99.825,25.532z"/>
</g>
<g id="battery-spark-zap1">
	<path d="M88.993,1.385c-1.49-1.526-3.94-1.55-5.473-0.059l-14.302,13.97c-1.529,1.496-1.56,3.946-0.063,5.472
		c0.758,0.771,1.762,1.165,2.767,1.165c0.975,0,1.954-0.362,2.708-1.102L88.931,6.86C90.46,5.364,90.489,2.912,88.993,1.385z"/>
</g>
</svg>
